<svg width="145" height="318" viewBox="0 0 145 318" fill="none" xmlns="http://www.w3.org/2000/svg">
<path d="M104.709 313.144L104.418 313.22C104.346 313.22 94.8266 315.04 88.3596 315.647C83.3458 316.102 79.0586 316.102 74.0449 316.026C72.5189 316.026 70.8477 316.026 69.1764 316.026C62.4914 316.026 53.1904 315.495 48.54 314.888C44.1802 314.357 39.675 313.22 39.675 313.22L39.457 313.144L39.675 312.992C39.893 312.84 45.0521 309.958 45.8514 309.882C46.2147 309.806 50.3566 309.958 55.5157 310.109C61.6921 310.337 69.3944 310.565 72.6642 310.565C77.46 310.565 88.9409 309.882 93.8093 309.578C94.9719 309.503 95.6986 309.427 95.9166 309.427C96.7885 309.427 97.6605 309.806 98.3871 310.109C98.6051 310.185 98.7504 310.261 98.8958 310.337C99.6951 310.64 104.128 312.84 104.346 312.992L104.709 313.144ZM39.9657 313.068C40.9103 313.295 44.7615 314.206 48.54 314.737C53.1904 315.344 62.4914 315.875 69.1764 315.875C70.8477 315.875 72.5189 315.875 74.0449 315.875C79.0586 315.95 83.3458 315.95 88.3596 315.495C94.1726 314.964 102.456 313.371 104.128 313.068C103.11 312.613 99.6224 310.868 98.9684 310.565C98.8231 310.489 98.6051 310.413 98.4598 310.337C97.7332 310.034 96.8612 309.578 96.0619 309.654C95.8439 309.654 95.1173 309.73 93.9547 309.806C89.0135 310.109 77.5327 310.792 72.8096 310.792C69.5397 310.792 61.8374 310.565 55.661 310.413C50.6472 310.261 46.3601 310.109 45.9967 310.185C45.2701 310.185 41.8549 312.006 39.9657 313.068Z" fill="#9FB7D3"/>
<path d="M44.8335 7.81131L43.6709 8.34234C42.2903 9.02507 36.1865 11.9077 32.0447 13.4249C28.0482 14.9421 23.2524 19.4936 20.2006 24.8037C17.1487 30.1138 14.9688 43.2374 14.9688 43.3892L14.6055 43.3892C14.6055 38.0032 16.3494 30.8725 17.3667 27.0036C17.6573 25.9416 17.8027 25.1072 17.948 24.652C18.384 22.3762 21.3632 18.204 27.0309 14.1835C33.28 9.70778 43.5255 8.11475 43.5982 8.11475L44.8335 7.81131ZM15.1868 40.5824C15.9861 36.4102 17.73 28.5208 19.9826 24.652C23.1071 19.266 27.9029 14.6386 32.0447 13.1214C35.3146 11.9077 39.8924 9.78365 42.2903 8.64577C39.3111 9.25264 32.1174 10.9974 27.3216 14.4111C21.7992 18.3557 18.82 22.4521 18.384 24.652C18.3113 25.1072 18.0933 25.9416 17.8027 27.0795C16.9307 30.2656 15.6228 35.7274 15.1868 40.5824Z" fill="#9FB7D3"/>
<path d="M129.779 43.3145L129.415 43.3145C129.415 43.1627 127.236 30.115 124.184 24.729C121.132 19.4189 116.336 14.8673 112.34 13.3501C108.27 11.833 102.167 8.9503 100.713 8.26757L99.5508 7.73655L100.786 7.96413C100.859 7.96413 111.104 9.63303 117.353 14.0329C123.021 18.0534 126 22.2256 126.436 24.5014C126.509 24.9566 126.727 25.791 127.018 26.853C127.962 30.7977 129.779 38.0043 129.779 43.3145ZM102.167 8.64686C104.565 9.78475 109.215 11.9088 112.412 13.1225C116.481 14.6397 121.35 19.2671 124.474 24.6531C126.727 28.5219 128.471 36.4113 129.27 40.5835C128.834 35.7285 127.454 30.2667 126.654 27.0048C126.364 25.9427 126.146 25.1083 126.073 24.5773C125.637 22.4532 122.73 18.281 117.135 14.3363C112.34 10.9985 105.219 9.25373 102.167 8.64686Z" fill="#9FB7D3"/>
<path d="M41.129 306.771L40.8383 306.923C40.693 306.999 37.8591 308.516 34.0079 307.302C30.4474 306.164 22.3818 301.537 18.8939 296.379C15.4061 291.22 14.4614 288.186 14.5341 282.876C14.6068 277.414 16.4234 269.221 16.496 269.145L16.496 269.07L19.1846 266.718L19.2572 266.946C19.3299 267.173 27.3229 286.669 29.7935 292.055L30.3021 293.117C32.5547 297.896 34.2986 301.689 36.6238 303.585C38.5131 305.102 40.7657 306.544 40.7657 306.544L41.129 306.771ZM14.9701 283.407C14.9701 288.338 15.9874 291.296 19.2572 296.227C22.6724 301.31 30.6654 305.861 34.1533 306.999C37.1325 307.985 39.5304 307.151 40.4023 306.771C39.7484 306.316 38.0044 305.178 36.5512 303.965C34.1533 301.992 32.3367 298.199 30.0841 293.344L29.5755 292.282C27.1776 287.2 20.0565 269.676 19.1119 267.401L16.932 269.373C16.7867 270.132 15.1154 277.793 15.0427 282.952C14.9701 283.103 14.9701 283.255 14.9701 283.407Z" fill="#9FB7D3"/>
<path d="M144.163 210.888L144.163 211.115C144.163 211.191 143.945 213.922 142.564 215.439C141.184 216.957 137.405 219.308 134.571 219.991C132.101 220.598 128.831 221.66 127.523 222.57C126.288 223.405 125.488 224.922 125.488 224.922L125.125 225.529L125.125 215.667L127.959 215.667C127.886 214.832 127.886 213.922 128.032 213.77C128.104 213.695 128.25 213.467 144.018 210.964L144.163 210.888ZM125.416 224.163C125.779 223.632 126.433 222.798 127.232 222.267C128.613 221.356 131.81 220.294 134.426 219.687C137.114 219.005 140.893 216.729 142.274 215.288C143.364 214.074 143.654 212.102 143.8 211.419C137.841 212.405 129.049 213.846 128.25 214.074C128.177 214.301 128.25 215.136 128.322 215.894L128.322 216.122L125.488 216.122L125.488 224.163L125.416 224.163Z" fill="#9FB7D3"/>
<path d="M29.136 147.923L29.136 148.226C28.9907 163.17 28.1914 175.459 26.5928 185.776C25.5028 192.755 23.6862 202.01 21.143 213.237L21.143 213.389L17.8732 213.389L17.8732 213.237C17.4372 199.127 16.8559 177.128 16.7832 152.702L16.7832 152.55L16.9285 152.474L29.136 147.923ZM20.7797 213.009C23.3229 201.858 25.1395 192.679 26.1568 185.7C27.7554 175.459 28.5547 163.322 28.7 148.454L17.0012 152.778C17.0739 177.052 17.6552 198.9 18.0911 213.009L20.7797 213.009Z" fill="#9FB7D3"/>
<path d="M29.0661 139.198L16.6406 140.791L16.6406 140.563C16.8586 99.3721 19.2565 90.4966 20.8551 84.5796L21.0731 83.6693L28.3394 89.738L28.3394 89.8139C28.7754 103.241 28.8481 122.433 28.9208 132.826C28.9208 135.026 28.9208 136.922 28.9208 138.288L29.0661 139.198ZM17.0766 140.412L28.7754 138.895L28.7754 138.364C28.7754 136.998 28.7754 135.177 28.7754 132.978C28.7028 122.661 28.6301 103.468 28.1941 90.0414L21.4364 84.4279L21.3638 84.8072C19.6925 90.5724 17.2946 99.4479 17.0766 140.412Z" fill="#9FB7D3"/>
<path d="M127.384 152.476L127.384 152.627C127.311 177.054 126.73 199.053 126.294 213.163L126.294 213.314L123.024 213.314L123.024 213.163C120.481 201.936 118.664 192.681 117.574 185.702C115.976 175.385 115.104 163.096 115.031 148.152L115.031 147.848L115.249 147.924L127.384 152.476ZM125.931 213.011C126.367 198.901 126.948 177.13 127.021 152.779L115.322 148.455C115.467 163.248 116.267 175.461 117.865 185.702C118.955 192.681 120.772 201.86 123.242 213.011L125.931 213.011Z" fill="#9FB7D3"/>
<path d="M127.381 140.796L114.956 139.203L114.956 138.292C114.956 136.927 114.956 135.106 114.956 132.906C115.029 122.514 115.101 103.321 115.537 89.8944L115.537 89.8185L122.876 83.7498L123.094 84.6601C124.693 90.5771 127.091 99.4526 127.309 140.644L127.381 140.796ZM115.392 138.899L127.091 140.416C126.873 99.4526 124.475 90.6529 122.876 84.7359L122.804 84.3566L116.046 89.9702C115.61 103.397 115.537 122.514 115.465 132.83C115.465 135.03 115.465 136.927 115.465 138.292L115.392 138.899Z" fill="#9FB7D3"/>
<path d="M122.076 237.518C122.076 238.049 122.003 238.504 121.931 238.807L121.931 238.883C121.858 238.959 115.246 247.152 107.398 250.793C99.4778 254.434 83.8551 257.317 71.8656 257.317C59.8762 257.317 44.2535 254.434 36.3332 250.793C28.4855 247.152 21.8005 239.035 21.8005 238.883L21.8005 238.807C21.0012 236.304 24.1257 220.829 24.9977 216.808C26.015 212.029 31.828 184.947 31.9007 184.644L31.9734 184.492L32.1187 184.492C36.5512 185.175 62.2741 187.071 71.8656 187.071C81.4572 187.071 107.18 185.175 111.613 184.492L111.758 184.492L111.831 184.644C111.903 184.947 117.716 212.029 118.734 216.808C119.533 220.373 122.076 233.042 122.076 237.518ZM121.64 238.655C122.294 236.38 119.678 222.801 118.37 216.884C117.353 212.332 111.976 187.223 111.467 184.872C106.599 185.554 81.3119 187.451 71.793 187.451C62.2741 187.451 36.9872 185.63 32.1187 184.872C31.6101 187.223 26.233 212.332 25.2157 216.884C23.9077 222.801 21.2918 236.38 21.9458 238.655C22.3818 239.186 28.8488 246.924 36.3332 250.413C44.3262 254.055 59.8762 256.861 71.8656 256.861C83.7825 256.861 99.3324 253.979 107.253 250.414C114.737 246.924 121.204 239.186 121.64 238.655Z" fill="#9FB7D3"/>
<path d="M118.445 229.549C118.445 233.949 116.265 239.714 112.632 242.142C111.397 242.976 109.871 243.659 108.272 244.342C107.618 244.645 107.037 244.873 106.383 245.176C98.3898 248.893 81.3138 249.424 71.8676 249.424C62.4213 249.424 45.4181 248.893 37.3524 245.176C36.6984 244.873 36.1171 244.645 35.4631 244.342C33.8646 243.659 32.4113 243.052 31.1033 242.142C26.8162 239.259 24.5636 231.901 25.4356 227.425C25.7262 225.832 26.0896 224.163 26.3802 222.646C26.8162 220.522 27.1068 218.702 27.3975 217.412C28.2695 213.543 32.1933 195.261 33.7919 187.524L33.7919 187.372L33.9372 187.372C41.4216 188.13 63.0026 189.723 71.7223 189.723C80.4419 189.723 102.023 188.206 109.507 187.372L109.653 187.372L109.653 187.524C111.324 195.185 115.248 213.543 116.047 217.412C116.338 218.702 116.701 220.598 117.064 222.646C117.355 224.163 117.646 225.832 118.009 227.425C118.372 228.108 118.445 228.791 118.445 229.549ZM25.5809 229.549C25.5809 233.873 27.6881 239.487 31.2487 241.838C32.4839 242.673 33.9372 243.28 35.5358 243.962C36.1898 244.266 36.7711 244.493 37.4251 244.797C45.4181 248.438 62.3487 248.969 71.7949 248.969C81.2412 248.969 98.1718 248.438 106.165 244.797C106.819 244.493 107.473 244.266 108.054 243.962C109.653 243.28 111.106 242.673 112.341 241.838C116.483 239.032 118.736 231.825 117.864 227.501C117.573 225.908 117.21 224.239 116.919 222.722C116.483 220.598 116.192 218.777 115.902 217.488C115.03 213.695 111.179 195.565 109.507 187.827C101.878 188.586 80.5145 190.103 71.7949 190.103C63.148 190.103 41.7122 188.586 34.0825 187.827C32.4113 195.64 28.5601 213.695 27.6882 217.488C27.3975 218.777 27.0342 220.598 26.6709 222.722C26.3802 224.239 26.0896 225.908 25.7262 227.501C25.6536 228.184 25.5809 228.867 25.5809 229.549Z" fill="#9FB7D3"/>
<path d="M108.408 64.0993C108.408 69.1819 108.045 77.3746 107.755 83.2916C107.755 83.3674 107.827 85.0363 106.81 86.2501C106.156 87.0086 105.139 87.3879 103.831 87.3879L40.1774 87.3879C38.8695 87.3879 37.9248 87.0086 37.1982 86.2501C36.1083 85.0363 36.2536 83.3674 36.2536 83.2916C35.9629 77.3746 35.5996 69.1819 35.5996 64.0993C35.5996 63.1132 35.5996 62.2787 35.6723 61.596C35.7449 60.3064 35.7449 59.1685 35.7449 58.1823L35.7449 57.1962C35.7449 52.3412 36.0356 50.2931 38.7241 48.6242C42.648 46.1208 50.423 42.8589 72.0767 42.8589C93.7305 42.8589 101.505 46.1208 105.429 48.6242C108.118 50.2931 108.408 52.3412 108.408 57.1962L108.408 58.1823C108.408 59.1685 108.408 60.3064 108.481 61.596C108.408 62.2787 108.408 63.1132 108.408 64.0993ZM107.391 83.3674C107.682 77.3746 108.045 69.1819 108.045 64.0993C108.045 63.1132 108.045 62.2787 107.973 61.596C107.9 60.3064 107.9 59.1685 107.9 58.1823L107.9 57.1962C107.9 52.493 107.682 50.5206 105.139 48.9276C101.215 46.5001 93.5851 43.2382 72.004 43.2382C50.423 43.2382 42.7933 46.5001 38.8695 48.9276C36.3262 50.5206 36.1083 52.493 36.1083 57.1962L36.1083 58.1823C36.1083 59.1685 36.1083 60.3064 36.0356 61.596C36.0356 62.2787 35.9629 63.1132 35.9629 64.0993C35.9629 69.1819 36.3262 77.3746 36.6169 83.2916C36.6169 83.3674 36.5442 84.8846 37.4889 86.0225C38.0702 86.7052 39.0148 87.0845 40.1774 87.0845L103.831 87.0845C104.993 87.0845 105.938 86.7052 106.519 86.0225C107.464 84.9605 107.391 83.3674 107.391 83.3674Z" fill="#9FB7D3"/>
<path d="M128.328 146.177C128.328 174.32 127.674 199.581 127.092 215.891L127.092 216.042L125.494 216.042L125.494 224.083C125.712 223.704 126.075 223.249 126.584 222.794L126.875 222.49L126.875 222.946C126.729 227.649 126.584 230.38 126.584 230.38L126.511 231.594L126.221 230.38C126.148 230.076 119.463 203.374 116.774 185.775C114.013 168.024 114.158 147.921 114.231 138.211C114.231 136.846 114.231 135.025 114.231 132.825C114.304 119.398 114.449 91.4824 115.321 79.9518C116.411 66.0697 117.138 65.9938 117.646 65.9938C118.446 65.918 122.878 79.9519 124.113 84.2758C125.712 90.6479 128.328 100.054 128.328 146.177ZM126.729 215.663C127.31 199.354 127.964 174.168 127.964 146.177C127.964 100.13 125.421 90.7238 123.677 84.5034C121.933 78.1312 118.228 67.3593 117.574 66.5248C116.92 66.8283 116.266 71.2281 115.612 80.1036C114.74 91.6341 114.594 119.55 114.522 132.977C114.522 135.177 114.522 136.998 114.522 138.363C114.449 147.997 114.304 168.1 117.065 185.851C119.027 198.367 122.951 215.663 125.131 224.539L125.131 215.739L126.729 215.739L126.729 215.663ZM126.221 229.166C126.293 228.028 126.366 226.056 126.439 223.477C125.785 224.159 125.421 224.918 125.421 224.918L125.276 225.221C125.639 226.89 126.003 228.256 126.221 229.166Z" fill="#9FB7D3"/>
<path d="M19.0378 215.666L19.0378 225.528L18.6745 224.921C18.6745 224.921 17.8752 223.404 16.6399 222.569C15.332 221.659 12.0621 220.597 9.59158 219.99C6.75771 219.307 2.9792 217.031 1.5986 215.438C0.217991 213.845 1.70971e-07 211.19 1.71875e-07 211.114L1.74589e-07 210.887L0.217991 210.887C15.986 213.466 16.1313 213.618 16.204 213.694C16.3493 213.921 16.3493 214.832 16.2766 215.59L19.0378 215.59L19.0378 215.666ZM18.6745 224.162L18.6745 216.121L15.8406 216.121L15.8406 215.894C15.9133 215.135 15.9133 214.3 15.9133 214.073C15.114 213.845 6.32173 212.328 0.363318 211.418C0.435981 212.101 0.799299 214.073 1.88925 215.287C3.19719 216.728 6.9757 219.08 9.73691 219.686C12.3528 220.293 15.55 221.355 16.9306 222.266C17.6572 222.797 18.3112 223.631 18.6745 224.162Z" fill="#9FB7D3"/>
<path d="M144.166 210.885L144.166 211.113C144.166 211.189 143.948 213.92 142.568 215.437C141.187 216.954 137.409 219.306 134.575 219.988C134.357 220.064 134.211 220.064 133.993 220.14C133.703 241.153 133.122 276.2 132.976 281.51C132.758 287.199 131.596 288.413 131.16 288.64C131.014 289.323 130.215 293.875 129.997 295.088C129.924 295.316 129.924 295.619 129.852 295.999C129.561 298.123 129.052 302.523 127.163 304.419C125.056 306.467 116.554 312.839 107.907 315.039C99.6963 317.239 81.3851 317.77 71.8662 317.77C62.3472 317.77 44.036 317.239 35.8977 315.115C27.3234 312.915 18.8218 306.543 16.6419 304.495C14.68 302.599 14.1713 298.199 13.9533 296.075C13.8807 295.695 13.8807 295.316 13.808 295.164C13.59 293.951 12.7907 289.399 12.6454 288.716C12.2821 288.489 11.0468 287.275 10.8288 281.586C10.6835 276.731 10.1022 244.036 9.81153 220.14C9.73886 220.14 9.6662 220.064 9.59354 220.064C6.75966 219.381 2.98116 217.106 1.60055 215.513C0.219945 213.92 0.0019544 211.265 0.0019544 211.189L0.0019544 210.961L0.219945 210.961C0.292608 210.961 5.37905 211.796 9.73886 212.554C9.6662 209.444 9.6662 206.713 9.6662 204.665C9.59354 198.672 9.6662 187.748 9.81153 172.121L9.73886 171.97C9.73886 171.894 8.8669 170.528 8.8669 169.087C8.8669 167.646 8.93957 161.577 9.08489 159.453C9.15756 157.253 9.95686 153.536 10.0295 153.536L10.1022 153.081C10.2475 142.461 10.3928 132.978 10.4655 127.516C10.6108 119.096 10.7562 107.035 10.6835 97.4005C10.5382 96.8695 10.3928 96.4143 10.3928 95.9592C10.3928 94.8972 10.4655 91.0284 10.5382 88.2974C10.4655 87.0078 10.4655 85.9458 10.3928 85.1114C9.88419 77.0703 11.2648 50.5198 11.6281 48.0164C11.8461 46.651 12.8634 42.2512 13.9533 37.6238C15.116 32.7688 16.3512 27.7621 16.7146 25.4864C17.4412 21.2383 22.0917 9.7836 29.2127 6.90097C36.479 3.94247 58.4234 0.149537 71.8662 0.149537C85.3089 0.149537 107.326 3.94248 114.52 6.90097C121.641 9.7836 126.291 21.2383 127.018 25.4864C127.381 27.7621 128.616 32.7688 129.779 37.6238C130.869 42.2512 131.959 46.651 132.104 48.0164C132.468 50.5956 133.848 77.1462 133.339 85.1114L133.339 85.6424C133.339 85.87 133.412 86.0975 133.412 86.2493C133.485 88.4492 133.63 94.442 133.63 95.8833C133.63 96.6419 133.339 97.4764 133.122 98.0074C133.049 107.641 133.194 119.4 133.339 127.516L133.339 127.744C133.412 133.282 133.557 142.84 133.703 153.46L133.921 153.005L134.066 153.536C134.066 153.536 134.865 157.253 135.011 159.453C135.083 161.653 135.229 167.646 135.229 169.087C135.229 170.528 134.357 171.894 134.357 171.97L134.284 172.121L134.139 172.046C134.139 172.046 134.066 172.046 134.066 171.97C134.211 187.597 134.284 198.596 134.211 204.589C134.211 206.637 134.139 209.368 134.139 212.478C138.571 211.72 144.021 210.809 144.021 210.809L144.166 210.885ZM0.365272 211.34C0.437935 212.023 0.801253 213.995 1.89121 215.209C3.19915 216.651 6.97765 219.002 9.73886 219.609C9.88419 219.609 9.95686 219.685 10.1022 219.685L10.2475 219.685L10.2475 219.837C10.6108 243.732 11.1195 276.503 11.2648 281.434C11.4828 287.578 12.9361 288.337 12.9361 288.337L13.0087 288.413L13.0087 288.489C13.0087 288.489 13.9533 293.723 14.1713 295.013C14.244 295.24 14.244 295.544 14.3167 295.999C14.5347 298.047 15.116 302.371 16.9326 304.192C18.9671 306.24 27.4688 312.536 35.9704 314.736C44.1087 316.86 62.3472 317.391 71.8662 317.391C81.3851 317.391 99.6236 316.86 107.762 314.736C116.264 312.536 124.693 306.24 126.8 304.192C128.616 302.447 129.125 298.123 129.416 295.999C129.488 295.544 129.488 295.24 129.561 295.013C129.779 293.723 130.724 288.489 130.724 288.489L130.724 288.413L130.796 288.413C130.796 288.413 132.25 287.73 132.468 281.51C132.613 276.655 133.194 243.884 133.485 219.988L133.485 219.837L133.63 219.837C133.921 219.761 134.139 219.685 134.357 219.685C137.045 219.002 140.824 216.726 142.204 215.285C143.294 214.071 143.585 212.099 143.73 211.416C142.64 211.568 137.845 212.402 133.848 213.085L133.63 213.085L133.63 212.858C133.703 209.596 133.703 206.789 133.703 204.741C133.775 198.672 133.703 187.521 133.557 171.59L133.557 170.908L133.921 171.439C133.993 171.515 133.993 171.59 134.066 171.59C134.284 171.211 134.793 170.149 134.793 169.087C134.793 167.646 134.72 161.653 134.575 159.453C134.502 157.784 133.993 155.357 133.775 154.219C133.775 154.295 133.703 154.37 133.703 154.522L133.339 155.584L133.339 154.446C133.194 143.447 133.049 133.509 132.976 127.744L132.976 127.516C132.831 119.324 132.686 107.566 132.758 97.9315L132.758 97.8557C132.976 97.3246 133.267 96.6419 133.267 95.8833C133.267 94.442 133.194 88.4492 133.049 86.2493C133.049 86.0217 133.049 85.7941 132.976 85.5665L132.976 84.9597C133.485 76.9186 132.104 50.4439 131.741 47.9406C131.523 46.5751 130.506 42.2512 129.416 37.6238C128.253 32.7688 127.018 27.7621 126.654 25.4864C125.928 21.2383 121.35 10.0112 114.374 7.20441C107.326 4.32178 85.0183 0.52881 71.7935 0.528809C58.6414 0.528809 36.3337 4.39764 29.2127 7.20441C22.237 10.0112 17.6592 21.3141 16.9326 25.4864C16.5692 27.7621 15.334 32.7688 14.1713 37.6238C13.0814 42.2512 11.9914 46.651 11.8461 47.9406C11.4828 50.5197 10.1022 76.9945 10.6108 84.9597C10.6835 85.87 10.6835 86.932 10.7562 88.2216C10.6835 90.9525 10.6108 94.7454 10.6108 95.8833C10.6108 96.3385 10.6835 96.7936 10.9015 97.2488L10.9015 97.3246C10.9741 107.035 10.8288 119.096 10.6835 127.516C10.6108 133.13 10.4655 142.916 10.3202 153.839L10.3202 154.75L10.1022 154.219C9.88419 155.357 9.37555 157.86 9.30288 159.453C9.15756 161.729 9.08489 167.722 9.08489 169.087C9.08489 170.149 9.59354 171.135 9.81153 171.59L10.1022 171.363L10.1022 171.742C9.95686 187.521 9.88419 198.596 9.95686 204.589C9.95686 206.713 10.0295 209.444 10.0295 212.706L10.0295 212.933L9.81153 212.933C5.96036 212.251 1.38256 211.492 0.365272 211.34Z" fill="#9FB7D3"/>
<path d="M30.0063 144.359C30.0063 155.055 29.7156 171.213 27.3904 185.854C24.6292 203.453 18.0168 230.155 17.9442 230.459L17.6535 231.672L17.5808 230.459C17.5808 230.459 17.4355 227.728 17.2902 223.024L17.2902 222.569L17.5808 222.873C18.0168 223.328 18.3801 223.783 18.6708 224.162L18.6708 216.121L17.0722 216.121L17.0722 215.97C16.4909 199.66 15.8369 174.399 15.8369 146.255C15.8369 100.133 18.3801 90.7267 20.1241 84.4305C21.2867 80.0307 25.7918 66.0726 26.5911 66.1485C27.1724 66.1485 27.8991 66.2244 28.9163 80.1065C29.7883 91.6371 29.9336 119.553 30.0063 132.98C30.0063 135.18 30.0063 137.001 30.0063 138.366C30.0063 140.035 30.0063 142.083 30.0063 144.359ZM19.0341 224.542C21.1413 215.666 25.1378 198.37 27.0998 185.854C29.861 168.103 29.7156 148 29.643 138.366C29.643 137.001 29.643 135.18 29.643 132.98C29.5703 119.553 29.425 91.6371 28.553 80.1065C27.8991 71.231 27.2451 66.7554 26.5911 66.5278C25.9371 67.3622 22.2313 78.21 20.4874 84.5063C18.8161 90.7267 16.2002 100.133 16.2002 146.18C16.2002 174.171 16.8542 199.432 17.4355 215.666L19.0341 215.666L19.0341 224.542ZM17.8715 229.169C18.0895 228.259 18.4528 226.969 18.8161 225.224L18.6708 224.921C18.6708 224.921 18.3075 224.238 17.6535 223.48C17.7262 226.059 17.8715 227.955 17.8715 229.169Z" fill="#9FB7D3"/>
<path d="M134.283 199.129C134.283 201.253 134.283 203.074 134.283 204.591C134.283 206.715 134.211 209.446 134.211 212.708L134.211 212.784L134.138 212.784C132.321 213.087 130.941 213.315 129.923 213.542L129.851 213.542L129.851 213.466C129.851 202.088 129.705 182.061 129.56 166.055C129.487 158.09 129.487 151.111 129.415 146.862C129.269 120.236 127.961 100.437 125.491 87.8443C123.674 78.6654 119.605 69.9417 118.37 67.5142C118.007 66.6039 117.861 66.3763 117.789 66.3763C117.28 66.4521 116.626 68.121 115.681 80.1067C114.809 91.6373 114.664 119.553 114.591 132.98C114.591 135.18 114.591 137.001 114.591 138.366C114.519 148 114.373 168.103 117.135 185.854C119.605 201.936 125.418 225.756 126.436 229.776C126.436 229.548 126.436 229.245 126.508 228.942L126.726 228.942C126.799 230.459 126.799 231.824 126.799 233.114C126.726 241.989 125.055 266.568 125.055 266.871L125.055 267.326C124.256 269.298 116.989 287.125 114.591 292.284L114.083 293.346C111.83 298.201 110.014 301.994 107.688 303.89C106.308 305.028 104.709 306.09 103.91 306.621L103.401 306.849L101.076 308.29C101.803 308.669 105.29 310.566 108.633 309.959C112.411 309.276 121.058 302.752 123.747 299.794C126 297.29 129.342 291.904 129.342 287.049L129.342 286.974C129.342 286.746 129.269 286.518 129.197 286.291C129.269 285.305 129.342 284.167 129.342 283.029C129.269 278.401 127.961 271.878 127.525 269.981C127.525 269.905 127.525 269.829 127.598 269.754C128.543 264.671 129.705 228.486 129.851 221.963C129.851 221.811 129.851 221.659 129.851 221.432L129.851 221.356L129.923 221.356C131.086 220.901 132.539 220.445 134.065 220.066L134.211 220.066L134.211 220.218C133.92 241.231 133.339 276.429 133.193 281.739C132.975 287.656 131.667 288.718 131.377 288.87C131.304 289.401 130.432 294.18 130.214 295.394C130.141 295.621 130.141 295.925 130.069 296.304C129.923 297.67 129.633 300.021 128.906 301.994L128.906 302.069L128.833 302.069C128.543 302.069 128.325 302.145 128.034 302.297C127.38 302.676 126.218 303.511 124.837 304.497C121.349 306.924 116.626 310.186 114.446 311.021C112.048 311.855 105.726 314.51 102.021 316.407C90.4671 317.924 74.0451 318 72.2285 318C70.4846 318 54.8619 317.924 43.3084 316.558C39.6026 314.586 33.1355 311.931 30.665 311.021C28.485 310.262 23.7619 306.924 20.2741 304.497C18.8935 303.511 17.7308 302.752 17.0769 302.297C16.5682 301.994 16.1322 301.994 15.7689 302.221L15.6963 302.297L15.6236 302.221C14.8243 300.173 14.5336 297.745 14.3883 296.304C14.3157 295.925 14.3157 295.546 14.243 295.394C14.025 294.18 13.153 289.401 13.0804 288.87C12.7897 288.718 11.4818 287.656 11.2638 281.739C11.1185 276.808 10.5372 244.037 10.2465 220.142L10.2465 219.99L10.3918 219.99C11.9904 220.37 13.5164 220.901 14.8243 221.356L14.897 221.356L14.897 221.432C14.897 221.659 14.897 221.811 14.897 221.963C15.0423 228.486 16.1322 264.671 17.1495 269.754L17.1495 269.829C16.7136 271.726 15.4056 278.401 15.3329 283.105C15.3329 284.546 15.4056 285.836 15.5509 286.974C15.5509 287.049 15.5509 287.049 15.5509 287.049C15.5509 287.125 15.5509 287.201 15.5509 287.277C15.5509 292.132 18.8935 297.594 21.146 300.021C23.8346 302.98 32.4815 309.504 36.26 310.186C39.3846 310.566 42.8724 308.669 43.5991 308.29L41.4192 306.773L40.6925 306.621C40.0386 306.166 38.2946 305.028 36.8414 303.814C34.4435 301.918 32.6995 298.049 30.447 293.27L29.9383 292.208C27.6131 287.277 20.8554 270.74 19.5474 267.478L19.5474 266.871C19.5474 266.643 17.8762 241.989 17.8035 233.114C17.8035 231.673 17.8035 230.079 17.8762 228.335L18.0942 228.335C18.0942 228.942 18.1668 229.473 18.1668 229.776C19.1841 225.68 24.9972 201.936 27.4678 185.854C30.229 168.103 30.0836 148 30.011 138.366C30.011 137.001 30.011 135.18 30.011 132.98C29.9383 119.553 29.793 91.6373 28.921 80.1067C27.9764 68.1969 27.3224 66.4521 26.8138 66.3763C26.8138 66.3763 26.7411 66.4522 26.5958 66.7556L26.4505 67.1349C25.5058 68.9555 21.0007 78.2103 19.1115 87.9202C16.6409 100.513 15.3329 120.388 15.1876 146.938C15.1876 151.111 15.115 157.938 15.0423 165.751C14.897 181.909 14.8243 202.012 14.7516 213.542L14.7516 213.618L14.679 213.618C13.6617 213.391 12.0631 213.163 10.1738 212.86L10.1012 212.86L10.1012 212.784C10.0285 209.522 10.0285 206.791 10.0285 204.667C9.95584 198.674 10.0285 187.599 10.1738 171.82L10.1738 171.744C10.9005 171.061 11.0458 168.634 11.0458 168.179L10.1738 167.572L10.3918 159.758L11.2638 159.303C11.2638 156.421 10.6098 154.524 10.3192 153.766C10.4645 142.311 10.6098 131.918 10.6825 127.443C10.8278 119.022 10.9731 106.961 10.9005 97.2508L10.9005 96.6439L11.0458 97.1749C11.2638 97.7818 11.4818 98.237 11.5544 98.3887C12.3537 97.7818 12.4264 95.2026 12.4991 94.8233L11.6271 94.2164L11.8451 86.403L12.7171 85.9478C12.7171 83.1411 12.0631 81.1688 11.8451 80.486C11.6271 81.3963 11.1185 84.2031 10.9731 86.0996C10.9731 86.5547 10.9005 87.2374 10.9005 88.1477L10.6825 88.1477C10.6098 86.8581 10.6098 85.7961 10.5372 84.8858C10.0285 76.8448 11.4091 50.3701 11.7724 47.7909C11.9904 46.4254 13.0077 42.0256 14.0977 37.3983C15.2603 32.5433 16.4956 27.5366 16.8589 25.2608C17.5855 21.0128 22.236 9.63394 29.357 6.75131C36.6234 3.79285 58.5678 -9.09736e-05 72.0105 -9.08133e-05C85.4533 -9.0653e-05 107.398 3.79285 114.664 6.75131C121.712 9.63394 126.363 21.0128 127.162 25.2608C127.525 27.5366 128.761 32.5433 129.923 37.3983C131.013 42.0256 132.103 46.4254 132.249 47.7909C132.612 50.3701 133.993 76.8448 133.484 84.8858C133.484 85.0376 133.484 85.1893 133.484 85.2651L133.484 85.4168L133.339 85.4168C133.193 83.5962 132.685 81.3205 132.539 80.486C132.249 81.1688 131.667 83.1411 131.667 85.9478L132.539 86.403L132.539 86.4789L132.757 94.2164L131.885 94.8233C131.885 95.2026 132.031 97.7818 132.83 98.3887C132.903 98.3128 132.975 98.0853 133.121 97.7818L133.266 97.4025L133.266 97.8577C133.193 107.492 133.339 119.25 133.484 127.443L133.484 127.67C133.557 133.511 133.702 143.373 133.847 154.372C133.557 155.359 133.121 157.027 133.121 159.227L133.92 159.683L133.92 159.758C133.92 162.338 133.993 164.993 133.993 167.648L133.993 167.724L133.339 168.179C133.339 168.558 133.484 170.53 133.993 171.441C134.211 183.426 134.283 192.681 134.283 199.129ZM133.993 212.708C134.065 209.522 134.065 206.715 134.065 204.667C134.138 198.598 134.065 187.447 133.92 171.517C133.266 170.454 133.193 168.179 133.193 168.103L133.193 168.027L133.847 167.572C133.847 164.993 133.775 162.413 133.775 159.834L132.975 159.379L132.975 159.303C132.975 157.027 133.339 155.359 133.702 154.297C133.557 143.297 133.411 133.435 133.339 127.594L133.339 127.367C133.193 119.326 133.048 107.795 133.121 98.237C133.048 98.4646 132.903 98.6163 132.903 98.6163L132.83 98.6921L132.757 98.6163C131.74 98.0094 131.667 94.8992 131.667 94.8233L131.667 94.7475L132.539 94.1406L132.321 86.5547L131.449 86.0996L131.449 86.0237C131.449 82.3825 132.467 80.1826 132.467 80.1826L132.612 79.955L132.685 80.1826C132.685 80.1826 133.121 82.3825 133.411 84.3548C133.775 75.7828 132.467 50.2943 132.176 47.7909C131.958 46.4254 130.941 42.1015 129.851 37.4741C128.688 32.6191 127.453 27.6125 127.089 25.3367C126.363 21.0886 121.785 9.78565 114.737 6.97888C107.688 4.09625 85.3079 0.303315 72.1558 0.303315C59.0037 0.303315 36.6234 4.17212 29.575 6.97888C22.5993 9.86151 17.9488 21.1645 17.2222 25.3367C16.8589 27.6125 15.6236 32.6191 14.461 37.4741C13.371 42.1015 12.2811 46.5013 12.1358 47.7909C11.7724 50.3701 10.3918 76.8448 10.9005 84.81C10.9005 85.1134 10.9005 85.4169 10.9731 85.7203C11.1185 83.5204 11.8451 80.1826 11.8451 80.1067L11.9178 79.8791L12.0631 80.1067C12.0631 80.1067 13.0804 82.3066 13.0804 85.9478L13.0804 86.0237L12.2084 86.4789L11.9904 94.0647L12.8624 94.6716L12.8624 94.7475C12.8624 94.8992 12.7897 97.9335 11.7724 98.5404L11.6998 98.6163L11.6271 98.5404C11.6271 98.5404 11.4091 98.1611 11.1911 97.706C11.2638 107.34 11.1185 119.098 10.9731 127.367C10.9005 131.842 10.7551 142.235 10.6098 153.614C10.9005 154.372 11.5544 156.269 11.5544 159.227L11.5544 159.303L10.6825 159.758L10.4645 167.344L11.3365 167.951L11.3365 168.027C11.3365 168.179 11.2638 170.91 10.3918 171.744C10.2465 187.523 10.1738 198.522 10.2465 204.591C10.2465 206.639 10.3192 209.37 10.3192 212.556C12.1358 212.86 13.589 213.163 14.6063 213.315C14.6063 201.784 14.7516 181.757 14.897 165.675C14.9696 157.862 14.9696 151.035 15.0423 146.862C15.1876 120.236 16.4956 100.437 18.9661 87.8443C20.928 77.0724 26.3051 66.8315 26.3051 66.6797C26.5231 66.2246 26.5958 66.1487 26.6685 66.1487C27.1771 66.1487 27.9037 66.2246 28.921 80.0309C29.793 91.5614 29.9383 119.477 30.011 132.904C30.011 135.104 30.011 136.925 30.011 138.29C30.0836 147.924 30.229 168.027 27.4678 185.778C24.7065 203.377 18.0942 230.079 18.0215 230.383L17.8762 230.99L17.8762 230.686C17.8762 231.521 17.8762 232.279 17.8762 233.038C17.9488 241.913 19.6201 266.492 19.6201 266.795L19.6201 267.402C20.928 270.74 27.6857 287.277 30.011 292.132L30.5196 293.194C32.7722 298.049 34.5161 301.842 36.914 303.738C38.44 304.952 40.1112 306.09 40.7652 306.469L41.4918 306.621L42.5091 307.304C40.4019 305.18 37.568 301.159 37.4227 300.932C37.35 300.856 32.9902 295.09 27.5404 278.553C22.9626 264.823 21.7273 252.458 21.0007 245.024C20.8554 243.431 20.71 242.141 20.5647 241.003C20.5647 241.003 19.9108 237.514 20.5647 233.721C21.0734 230.686 24.7792 213.466 27.1771 202.088C27.8311 199.129 28.3397 196.626 28.703 194.805C30.5923 185.778 32.5542 160.441 32.6995 141.628C32.7722 136.318 32.8449 131.236 32.9175 126.229C33.1355 112.498 33.3535 99.5266 32.9175 84.81C32.6995 77.6034 32.4089 70.9278 32.1182 65.0108C31.6822 54.3147 31.2463 45.06 31.3189 37.7017C31.3189 37.019 31.3189 36.3362 31.3189 35.6535C31.3916 25.2609 31.3916 18.3577 37.8587 15.9302C44.8344 13.351 59.8757 10.4684 72.1558 10.4684C84.436 10.4684 99.55 13.2752 106.453 15.9302C112.92 18.3577 112.993 25.2609 112.993 35.6535C112.993 36.3362 112.993 37.019 112.993 37.7017C112.993 38.081 112.993 38.4603 112.993 38.8396C112.993 45.9703 112.629 54.8458 112.193 64.935C111.975 70.852 111.685 77.5275 111.394 84.7341C110.886 99.4507 111.104 112.423 111.394 126.153C111.467 131.084 111.539 136.242 111.612 141.552C111.83 160.365 113.719 185.702 115.609 194.729C115.972 196.55 116.553 199.053 117.135 201.936C119.532 213.315 123.238 230.535 123.747 233.569C124.401 237.362 123.747 240.851 123.747 240.851C123.602 241.913 123.456 243.279 123.311 244.796C122.584 252.154 121.276 264.519 116.771 278.326C111.321 294.863 106.962 300.704 106.889 300.704C106.744 300.932 103.474 305.559 101.294 307.531L103.038 306.393L103.547 306.166C104.346 305.635 105.944 304.573 107.325 303.435C109.65 301.538 111.467 297.745 113.719 292.966L114.228 291.904C116.626 286.746 123.82 269.071 124.692 267.023L124.692 266.643C124.692 266.416 126.363 241.762 126.436 232.886C126.436 232.204 126.436 231.445 126.436 230.686L126.29 230.231C126.218 229.928 119.532 203.225 116.844 185.626C114.083 167.875 114.228 147.773 114.301 138.139C114.301 136.773 114.301 134.953 114.301 132.753C114.373 119.326 114.519 91.4097 115.391 79.8791C116.481 66.0728 117.207 65.997 117.643 65.997C117.716 65.997 117.861 65.997 118.37 67.2866C119.605 69.7141 123.747 78.5137 125.491 87.6926C127.961 100.285 129.269 120.16 129.415 146.711C129.415 150.959 129.487 157.938 129.56 165.903C129.633 181.909 129.778 201.784 129.851 213.239C130.941 213.239 132.321 213.011 133.993 212.708ZM128.615 301.614C129.269 299.642 129.56 297.366 129.778 296.001C129.851 295.621 129.851 295.242 129.923 295.015C130.141 293.725 131.086 288.491 131.086 288.491L131.086 288.415L131.159 288.415C131.159 288.415 132.685 287.732 132.903 281.436C133.048 276.581 133.629 243.962 133.92 220.066C132.539 220.445 131.159 220.901 129.996 221.28C129.996 221.432 129.996 221.583 129.996 221.735C129.851 228.259 128.761 264.519 127.743 269.602C127.743 269.678 127.743 269.754 127.743 269.754C128.179 271.65 129.487 278.174 129.56 282.877C129.56 284.091 129.56 285.153 129.415 286.139C129.487 286.367 129.56 286.594 129.56 286.898L129.56 286.974C129.56 291.904 126.218 297.366 123.965 299.87C121.276 302.828 112.557 309.428 108.706 310.11C104.854 310.793 100.931 308.366 100.858 308.366C100.785 308.442 100.713 308.442 100.64 308.517C100.495 308.517 89.1591 310.186 72.3012 310.186C55.4432 310.186 44.1077 308.517 43.9624 308.517L43.8897 308.442C43.3084 308.669 39.6026 310.793 35.9694 310.186C32.1909 309.504 23.3986 302.904 20.71 299.945C18.4575 297.442 15.115 291.98 15.115 287.049C15.115 286.974 15.115 286.898 15.115 286.822L15.115 286.746C14.9696 285.608 14.897 284.318 14.897 282.877C14.9696 278.174 16.3502 271.498 16.7136 269.602C15.7689 264.443 14.6063 228.259 14.461 221.735C14.461 221.583 14.461 221.432 14.461 221.28C13.2257 220.825 11.7724 220.37 10.2465 219.99C10.6098 243.886 11.1185 276.581 11.2638 281.436C11.4818 287.732 13.0077 288.415 13.0077 288.415L13.0804 288.415L13.0804 288.491C13.0804 288.491 14.025 293.725 14.243 295.015C14.3157 295.242 14.3157 295.546 14.3883 296.001C14.5336 297.442 14.8243 299.794 15.5509 301.766C15.9869 301.538 16.4956 301.538 17.0042 301.842C17.6582 302.221 18.8208 303.056 20.2014 304.042C23.6893 306.469 28.4124 309.731 30.5196 310.49C32.9902 311.4 39.4572 314.055 43.1631 316.027C54.7166 317.469 70.3393 317.469 72.0832 317.469C73.8998 317.469 90.2491 317.393 101.803 315.952C105.508 313.979 111.903 311.4 114.228 310.566C116.335 309.807 121.058 306.469 124.546 304.118C125.927 303.131 127.089 302.373 127.743 301.918C128.107 301.69 128.397 301.614 128.615 301.614ZM100.495 308.29C102.457 307.152 106.816 300.932 106.889 300.856C106.962 300.78 111.321 295.015 116.771 278.477C121.276 264.747 122.584 252.382 123.311 245.024C123.456 243.431 123.602 242.141 123.747 241.003C123.747 240.927 124.401 237.514 123.747 233.797C123.238 230.762 119.532 213.542 117.135 202.163C116.481 199.205 115.972 196.702 115.609 194.957C113.719 185.93 111.757 160.593 111.612 141.704C111.539 136.394 111.467 131.311 111.394 126.305C111.176 112.574 110.958 99.6024 111.394 84.81C111.612 77.6034 111.903 70.9278 112.193 65.0108C112.629 54.3147 113.065 45.06 112.993 37.7775C112.993 37.0948 112.993 36.4121 112.993 35.7294C112.92 25.4126 112.92 18.5853 106.598 16.1578C99.6953 13.5786 84.5813 10.7718 72.3012 10.7718C60.021 10.7718 44.9797 13.5786 38.004 16.1578C31.6096 18.5853 31.6096 25.4126 31.6096 35.7294C31.6096 36.4121 31.6096 37.0948 31.6096 37.7775C31.5369 45.1358 31.9729 54.3906 32.4089 65.0108C32.6269 70.9278 32.9175 77.6034 33.2082 84.81C33.7168 99.6024 33.4988 112.574 33.2082 126.305C33.1355 131.236 33.0629 136.394 32.9902 141.704C32.7722 160.517 30.8829 185.93 28.9937 194.957C28.6304 196.777 28.0491 199.281 27.4678 202.239C25.0699 213.618 21.364 230.838 20.8554 233.797C20.2014 237.514 20.8554 241.003 20.8554 241.003C21.0007 242.065 21.146 243.431 21.2914 245.024C22.018 252.382 23.3259 264.747 27.8311 278.477C33.1355 295.015 37.4953 300.78 37.4953 300.856C37.568 300.932 41.6372 306.773 43.6717 308.138L43.5991 308.214L43.6717 308.214L43.7444 308.29L43.8171 308.214C43.8897 308.214 43.8897 308.29 43.9624 308.29C44.471 308.366 55.6612 309.959 72.2285 309.959C88.7958 309.959 99.986 308.366 100.495 308.29ZM101.221 8.34433L101.003 8.26849C99.0414 7.88919 85.7439 5.91687 74.0451 5.91687C68.886 5.91687 62.3463 6.37201 56.7512 6.90305C62.2736 6.52374 72.1558 6.06857 76.5883 6.06857C82.1108 6.06857 89.9584 6.97891 93.3009 7.50992C95.4082 7.81336 97.8787 8.95123 99.6227 9.78568L100.131 10.0891L99.55 10.0132C93.5189 9.10294 81.3841 7.73746 72.9551 7.73746C65.0348 7.73746 53.6993 8.87537 46.5056 9.86151L46.215 9.93738L46.4329 9.70981C47.8862 8.34436 50.9381 7.58579 53.2633 7.28235C48.3949 7.73749 44.689 8.26849 43.8897 8.34433L43.5264 8.4202L43.8171 8.19263C44.1077 7.96506 46.3603 6.22031 48.8308 5.6893C51.3741 5.08243 63.4362 3.64111 71.0659 3.64111C78.4049 3.64111 86.3979 4.17212 93.0103 5.00656C99.2593 5.84103 101.003 8.11679 101.076 8.19263L101.221 8.34433ZM44.1804 8.04092C47.3049 7.66162 63.2909 5.6893 73.9724 5.6893C85.2353 5.6893 98.0241 7.58579 100.713 8.04093C100.131 7.43405 98.0241 5.76514 92.9376 5.08243C86.3979 4.24799 78.4049 3.71698 71.0659 3.71698C63.4362 3.71698 51.3741 5.1583 48.8308 5.6893C46.8689 6.22031 44.907 7.50992 44.1804 8.04092ZM46.7963 9.55811C53.99 8.57193 65.1075 7.43405 72.9551 7.43405C81.1661 7.43405 92.7196 8.72363 98.9687 9.63394C97.2974 8.7995 95.0449 7.88919 93.2283 7.58576C89.8858 7.13062 82.0381 6.14444 76.5157 6.14444C70.9206 6.14444 56.6058 6.82718 53.4086 7.28235C51.2287 7.66162 48.3222 8.34436 46.7963 9.55811Z" fill="#9FB7D3"/>
<path d="M111.682 184.792L110.229 185.019L110.229 184.943C110.229 184.64 108.485 158.165 108.049 141.401C107.613 123.422 107.468 109.919 108.339 89.8924L108.339 89.8166L109.793 89.8166L109.793 89.8924C108.921 109.843 108.993 123.422 109.502 141.401C109.938 158.165 111.682 184.412 111.682 184.716L111.682 184.792ZM110.447 184.792L111.537 184.564C111.464 182.895 109.793 157.634 109.357 141.325C108.921 123.346 108.775 109.843 109.647 89.9683L108.557 89.9683C107.686 109.919 107.758 123.422 108.267 141.325C108.703 157.634 110.301 182.971 110.447 184.792Z" fill="#9FB7D3"/>
<path d="M110.964 64.1038C110.964 72.5999 109.946 89.7439 109.946 89.8957L109.946 90.0474L34.0856 90.0474L34.0856 89.8957C34.0856 89.6681 32.8503 68.3518 33.141 61.4487C33.2136 60.0833 33.2136 58.8695 33.2136 57.6558C33.2136 52.8008 33.2136 48.932 37.4281 46.277C42.0059 43.3944 49.9989 40.1325 72.0886 40.1325C94.1057 40.1325 102.171 43.3944 106.749 46.277C110.964 48.932 110.964 52.8008 110.964 57.6558C110.964 58.8695 110.964 60.0833 111.036 61.4487C110.964 62.2073 110.964 63.1176 110.964 64.1038ZM109.583 89.7439C109.728 87.6958 110.818 68.0484 110.528 61.5246C110.455 60.1591 110.455 58.9454 110.455 57.7316C110.455 52.8008 110.455 49.2355 106.458 46.7322C102.317 44.153 94.1783 40.6635 72.0159 40.6635C49.8536 40.6635 41.7153 44.153 37.5734 46.7322C33.5769 49.2355 33.5769 52.8008 33.5769 57.7316C33.5769 58.9454 33.5769 60.235 33.5043 61.5246C33.2136 68.0484 34.3036 87.6199 34.4489 89.7439L109.583 89.7439Z" fill="#9FB7D3"/>
<path d="M36.1159 111.963C36.1159 120.384 35.8979 128.121 35.6799 136.542C35.6072 138.135 35.6072 139.803 35.5345 141.472C35.0986 158.237 33.3546 184.56 33.3546 184.788L33.3546 184.864L31.9014 184.864L31.9014 184.788C31.9014 184.56 33.6453 158.237 34.0813 141.472C34.1539 139.803 34.1539 138.135 34.2266 136.542C34.6626 121.522 34.9532 108.474 34.1539 89.8126L34.3719 89.8126L34.3719 89.9643L35.6072 89.9643L35.6072 90.0401C35.9705 98.157 36.1159 105.212 36.1159 111.963ZM33.2093 184.636C33.3546 182.967 34.9532 157.706 35.3892 141.396C35.4619 139.728 35.4619 138.059 35.5345 136.466C35.9705 121.522 36.2612 108.55 35.4619 89.9643L34.3719 89.9643C35.1712 108.55 34.8079 121.446 34.4446 136.39C34.3719 137.983 34.3719 139.652 34.2993 141.321C33.8633 157.554 32.2647 182.739 32.1194 184.56L33.2093 184.56L33.2093 184.636Z" fill="#9FB7D3"/>
<path d="M21.5833 79.8027L12.5731 73.734L10.4658 72.7478C10.4658 72.8237 10.4658 72.8995 10.4658 72.9754L12.5004 73.8857L21.5107 80.0303C21.5833 79.9544 21.5833 79.8785 21.5833 79.8027Z" fill="#9FB7D3"/>
<path d="M15.9855 146.484L10.2451 147.698C10.2451 147.774 10.2451 147.85 10.2451 147.926L15.9855 146.712C15.9855 146.636 15.9855 146.56 15.9855 146.484Z" fill="#9FB7D3"/>
<path d="M17.58 226.741C17.58 226.665 17.58 226.589 17.58 226.513L15.0368 227.044L10.0957 229.472C10.0957 229.547 10.0957 229.623 10.0957 229.699L15.0368 227.272L17.58 226.741Z" fill="#9FB7D3"/>
<path d="M32.2705 13.1978C32.3431 17.3701 32.561 33.4522 32.561 40.4312C32.561 45.5896 33.8682 48.0171 34.885 49.0791C34.9576 49.0032 34.9576 48.9274 35.0302 48.8515C34.0861 47.7895 32.7789 45.362 32.7789 40.4312C32.7789 33.3763 32.561 17.1425 32.4884 13.122C32.4158 13.122 32.3431 13.122 32.2705 13.1978Z" fill="#9FB7D3"/>
<path d="M112.265 13.1958C112.192 13.1958 112.119 13.1199 112.047 13.1199C111.974 17.2163 111.756 33.3742 111.756 40.429C111.756 45.8909 110.231 48.2425 109.287 49.1528C109.36 49.2286 109.36 49.3045 109.432 49.3804C110.449 48.4701 112.047 46.0426 112.047 40.429C111.974 33.45 112.192 17.368 112.265 13.1958Z" fill="#9FB7D3"/>
<path d="M126.506 226.664L129.412 227.195L133.627 229.243C133.627 229.168 133.627 229.092 133.627 229.016L129.485 226.968L126.506 226.361C126.506 226.512 126.506 226.588 126.506 226.664Z" fill="#9FB7D3"/>
<path d="M128.109 146.634L133.486 147.772C133.486 147.696 133.486 147.62 133.486 147.544L128.109 146.406C128.109 146.482 128.109 146.558 128.109 146.634Z" fill="#9FB7D3"/>
<path d="M122.585 80.032C122.585 80.1078 122.658 80.1837 122.658 80.2595L131.959 73.9633L133.266 73.3565C133.266 73.2806 133.266 73.2048 133.266 73.1289L131.886 73.7358L122.585 80.032Z" fill="#9FB7D3"/>
<path d="M121.784 238.726C121.784 238.726 121.711 238.802 121.639 238.878L123.528 239.409L126.071 244.643L124.763 267.325C124.836 267.173 124.836 267.097 124.836 267.097L124.981 267.249L126.289 244.719L123.673 239.333L121.784 238.726Z" fill="#9FB7D3"/>
<path d="M129.342 283.407C129.342 288.414 128.325 291.448 124.982 296.379C121.567 301.537 113.429 306.164 109.868 307.302C106.017 308.516 103.183 306.999 103.038 306.923L102.747 306.771L103.038 306.62C103.038 306.62 105.29 305.178 107.18 303.661C109.505 301.765 111.321 297.972 113.501 293.193L114.01 292.131C116.553 286.745 124.473 267.249 124.546 267.021L124.619 266.794L127.307 269.145L127.307 269.221C127.307 269.297 129.197 277.49 129.269 282.952C129.342 283.103 129.342 283.255 129.342 283.407ZM103.546 306.771C104.346 307.151 106.744 307.985 109.795 306.999C113.283 305.861 121.276 301.31 124.691 296.227C128.107 291.144 129.051 288.186 128.979 282.952C128.906 277.793 127.235 270.132 127.089 269.373L124.909 267.401C123.965 269.676 116.844 287.2 114.446 292.282L113.937 293.344C111.685 298.199 109.868 301.992 107.47 303.965C105.944 305.178 104.273 306.316 103.546 306.771Z" fill="#9FB7D3"/>
<path d="M129.123 285.608C130.576 281.284 131.957 278.781 132.829 277.415C132.829 277.264 132.829 277.112 132.829 276.96C131.957 278.174 130.649 280.526 129.123 284.774C129.123 285.077 129.123 285.305 129.123 285.608Z" fill="#9FB7D3"/>
<path d="M79.5687 305.482L64.3821 305.482L37.6419 301.385L32.7734 298.578C32.8461 298.73 32.9188 298.806 32.9914 298.958L37.5692 301.613L64.3821 305.709L79.5687 305.709L106.164 301.537L110.669 299.413C110.741 299.337 110.814 299.185 110.887 299.034L106.164 301.234L79.5687 305.482Z" fill="#9FB7D3"/>
<path d="M14.7525 283.253C13.0086 278.625 11.4827 276.653 10.9014 275.97C10.9014 276.122 10.9014 276.198 10.9014 276.35C11.628 277.184 13.0813 279.308 14.7525 283.86C14.7525 283.708 14.7525 283.48 14.7525 283.253Z" fill="#9FB7D3"/>
<circle cx="121.083" cy="239" r="6" fill="#29C4A8"/>
<circle cx="129.083" cy="148" r="6" fill="#29C4A8"/>
<circle cx="72.083" cy="278" r="6" fill="#29C4A8"/>
</svg>
