<svg width="12" height="9" viewBox="0 0 12 9" fill="none" xmlns="http://www.w3.org/2000/svg">
<path d="M2.16308 4.03516H2.16326C2.24256 4.03525 2.32081 4.05331 2.39213 4.08798C2.46341 4.12262 2.52591 4.17295 2.57497 4.2352L2.16308 4.03516ZM2.16308 4.03516H1.34394C1.14031 4.03516 1.0266 4.26975 1.15232 4.4292L1.15237 4.42927L4.36214 8.49567L4.36218 8.49573C4.57247 8.76188 4.97568 8.76114 5.18667 8.49617L5.18708 8.49566L10.9097 1.24398C10.9098 1.24378 10.91 1.24358 10.9102 1.24338C11.0384 1.08295 10.9199 0.85 10.7189 0.85H9.8998C9.73941 0.85 9.58668 0.9235 9.4876 1.05044C9.48751 1.05055 9.48742 1.05066 9.48734 1.05077L4.77403 7.02157M2.16308 4.03516L4.77403 7.02157M4.77403 7.02157L2.57506 4.23531L4.77403 7.02157Z" fill="white" stroke="white" stroke-width="0.3"/>
</svg>
