<?xml version="1.0" encoding="utf-8"?><svg xmlns="http://www.w3.org/2000/svg" xmlns:xlink="http://www.w3.org/1999/xlink"><symbol viewBox="0 0 24 24" id="arrow" xmlns="http://www.w3.org/2000/svg"><path d="M13.107 8.27l-.002-.001a1.038 1.038 0 01-.212-.336 1.1 1.1 0 010-.805c.05-.127.122-.24.212-.335a.955.955 0 01.31-.218.896.896 0 01.716 0c.114.05.22.123.31.218l3.77 3.962c.383.402.39 1.068-.003 1.493l-3.767 3.959a.922.922 0 01-.668.293.922.922 0 01-.668-.293 1.072 1.072 0 01-.288-.738c0-.281.106-.546.288-.738l.002-.002 1.272-1.351.792-.843h-8.71c-.504 0-.961-.443-.961-1.035 0-.592.457-1.035.961-1.035h8.71l-.792-.843-1.271-1.351z"/></symbol><symbol viewBox="0 0 25 25" id="avtoscop-bot" xmlns="http://www.w3.org/2000/svg"><path d="M13.833 4.406a9 9 0 018 8.945v9h-18v-9a9 9 0 018-8.945V1.35h2v3.055zm6 15.945v-7a7 7 0 00-14 0v7h14zm-7-2a5 5 0 110-10 5 5 0 010 10zm0-2a3 3 0 100-6 3 3 0 000 6zm0-2a1 1 0 110-2 1 1 0 010 2z"/></symbol><symbol viewBox="0 0 50 48" id="call" xmlns="http://www.w3.org/2000/svg"><path d="M22.735 44c-.016-.083-.093-.077-.15-.101-.634-.282-.965-.77-.97-1.465-.007-.794-.017-1.588.003-2.382.023-.922.584-1.532 1.507-1.551 1.6-.032 3.203-.033 4.804.002.93.02 1.506.654 1.496 1.602-.003.372.116.415.437.387 1.05-.093 2.095-.18 3.123-.446 2.28-.588 3.556-2.069 3.972-4.349.099-.538.146-1.082.191-1.626.015-.174-.025-.23-.2-.225-.378.01-.755.01-1.133.001-.537-.01-.812-.271-.857-.805-.008-.103-.004-.208-.004-.312 0-4.66 0-9.322.002-13.983 0-.142.003-.287.024-.427.062-.406.284-.633.691-.66.414-.027.832-.02 1.249-.015.186.002.243-.06.233-.251-.252-4.854-2.47-8.523-6.844-10.644-4.57-2.214-8.994-1.633-12.986 1.49-2.495 1.952-3.913 4.603-4.363 7.757-.067.467-.051.935-.112 1.4-.025.193.051.252.235.248.351-.008.703-.008 1.055-.001.625.013.887.28.908.91.002.066 0 .13 0 .196l-.001 14.022c0 .155-.008.313-.034.465-.061.364-.283.608-.648.611-1.206.01-2.418.131-3.615-.145-1.784-.412-2.971-1.74-3.17-3.555-.046-.415-.067-.83-.066-1.247.003-2.186.001-4.374.001-6.562 0-.732.077-1.455.352-2.14.558-1.391 1.637-2.141 3.062-2.433.284-.058.401-.13.416-.45.254-5.162 2.633-9.066 7.106-11.62 2.716-1.553 5.688-2.01 8.784-1.491 3.839.645 6.864 2.61 9.074 5.792 1.526 2.198 2.295 4.671 2.36 7.353.005.216.03.353.291.397 2.198.374 3.459 1.9 3.506 4.077.057 2.615.05 5.233 0 7.849-.03 1.614-.715 2.91-2.221 3.67-.385.193-.79.342-1.216.394-.276.034-.356.134-.369.412-.057 1.133-.232 2.247-.624 3.32-.791 2.169-2.377 3.436-4.562 4.03-1.2.328-2.429.44-3.662.513-.268.015-.375.068-.367.374.026.857-.457 1.357-1.237 1.613L22.735 44zm-9.216-18.28c0-2.095 0-4.192-.002-6.287 0-.155.07-.348-.225-.336-.623.024-1.248-.02-1.871.059-1.329.169-2.206 1.024-2.363 2.351-.139 1.167-.048 2.34-.059 3.51-.014 1.471-.027 2.944.01 4.413.045 1.786.953 2.727 2.724 2.878.465.039.937.006 1.403.037.298.019.393-.059.39-.377-.015-2.082-.007-4.165-.007-6.248zm22.963.008c0 2.108.002 4.215-.005 6.324-.001.219.024.328.287.313.454-.026.91.003 1.365-.017 1.752-.076 2.767-1.086 2.813-2.833.039-1.522.036-3.045.047-4.567.007-.99.036-1.979-.002-2.966-.057-1.506-.784-2.425-2.102-2.723-.68-.153-1.373-.071-2.06-.107-.311-.017-.353.094-.352.37.014 2.067.009 4.136.009 6.206zM25.504 42.492c.701 0 1.403-.008 2.105.004.223.004.326-.04.32-.295-.017-.649-.013-1.3-.001-1.949.003-.19-.053-.24-.24-.24a439.63 439.63 0 01-4.328 0c-.192 0-.24.06-.236.244.01.65.018 1.3-.002 1.949-.009.26.094.295.316.291.688-.012 1.378-.004 2.066-.004z"/></symbol><symbol viewBox="0 0 25 25" id="call-ben" xmlns="http://www.w3.org/2000/svg"><path d="M12.167 2.35c-5.514 0-10 4.487-10 10v4.144c0 1.024.897 1.857 2 1.857h1a1 1 0 001-1v-5.143a1 1 0 00-1-1h-.908c.556-3.87 3.886-6.857 7.908-6.857s7.352 2.987 7.908 6.857h-.908a1 1 0 00-1 1v6.143c0 1.103-.897 2-2 2h-2v-1h-4v3h6c2.206 0 4-1.794 4-4 1.103 0 2-.833 2-1.857V12.35c0-5.514-4.486-10-10-10z"/></symbol><symbol viewBox="0 0 81 80" id="car-service" xmlns="http://www.w3.org/2000/svg"><path d="M46.12 21.815a6.03 6.03 0 00-1.396 1.983 5.712 5.712 0 00-.474 2.334.847.847 0 00.276.614.966.966 0 00.658.254h.007a.987.987 0 00.357-.069.94.94 0 00.3-.192.87.87 0 00.201-.285.825.825 0 00.068-.335c-.009-1.15.47-2.257 1.333-3.077a4.792 4.792 0 013.266-1.293h.035c1.222 0 2.396.453 3.263 1.26.868.806 1.36 1.901 1.369 3.046a.847.847 0 00.276.614.966.966 0 00.657.254h.007a.99.99 0 00.357-.069.941.941 0 00.301-.191.872.872 0 00.2-.285.827.827 0 00.069-.335 5.821 5.821 0 00-1.122-3.375 6.437 6.437 0 00-2.935-2.222 6.912 6.912 0 00-3.758-.32 6.64 6.64 0 00-3.314 1.689zM17.25 33h-.03c-1.056.003-2.068.375-2.813 1.034-.745.659-1.16 1.55-1.157 2.479.004.928.427 1.817 1.177 2.47.75.655 1.765 1.02 2.822 1.017h.03c1.057-.003 2.07-.375 2.814-1.034.745-.659 1.16-1.55 1.157-2.479-.004-.928-.427-1.817-1.177-2.47-.75-.655-1.765-1.02-2.822-1.017zm.015 5.242h-.015a2.27 2.27 0 01-.76-.13 2.02 2.02 0 01-.644-.376 1.643 1.643 0 01-.586-1.23 1.64 1.64 0 01.575-1.233 2.13 2.13 0 011.4-.515h.015c.26 0 .518.044.76.13.24.087.46.215.644.376.185.161.332.353.432.564a1.56 1.56 0 01.006 1.333 1.743 1.743 0 01-.428.566 2.02 2.02 0 01-.642.38c-.24.088-.497.134-.758.135z"/><path d="M69.294 31.225a.982.982 0 00.008-.123 6.56 6.56 0 00-1.583-4.274 5.736 5.736 0 00-.985-.896l3.516-.027a.909.909 0 00.663-.295.936.936 0 00.248-.69 10.01 10.01 0 00-.486-2.395c-.564-1.675-2.305-2.752-4.444-2.752h-.047c-1.32.01-3.718.019-4.79.023l-2.182-4.01C57.704 13.09 55.514 10 51.922 10h-.046l-26.337.197c-2.95.022-5.556 2.118-7.338 5.902l-2.217 4.056c-1.069.006-3.495.02-4.831.03-2.16.015-3.907 1.122-4.45 2.819-.248.778-.4 1.585-.452 2.4a.945.945 0 00.255.685.921.921 0 00.664.287h.008l3.46-.03a5.665 5.665 0 00-.954.913 6.66 6.66 0 00-1.485 4.3c0 .04.003.078.008.117L9.843 44.06c.023.848.338 1.661.89 2.298a3.562 3.562 0 002.132 1.188l.03 4.003c.004.6.242 1.175.662 1.598.42.423.988.66 1.58.661h.017l4.017-.03a2.23 2.23 0 001.58-.68c.417-.429.65-1.01.646-1.612l-.029-3.957 11.684-.088c-.04.54-.062 1.081-.062 1.626C32.99 60.609 42.244 70 53.62 70c11.375 0 20.63-9.39 20.63-20.933a20.953 20.953 0 00-5.412-14.133l.456-3.71zm-3.098-9.585h.033c1.319 0 2.403.596 2.704 1.49.1.3.183.607.247.917l-5.451.043-1.322-2.431c1.191-.005 2.796-.012 3.79-.019zm-46.372-4.661a.928.928 0 00.026-.052c.847-1.807 2.715-4.84 5.703-4.863l26.336-.197h.034c2.09 0 3.792 1.45 5.684 4.831l4.494 8.26-46.83.35 4.553-8.33zM8.218 24.5c.06-.31.138-.618.234-.92.29-.904 1.38-1.52 2.714-1.53l3.794-.023-1.325 2.426-5.417.047zm10.94 27.411l-4.018.03a.372.372 0 01-.286-.117.407.407 0 01-.12-.289l-.029-3.956 4.822-.037.03 3.957a.42.42 0 01-.116.29.4.4 0 01-.284.122zm14.119-6.338l-19.857.148a1.72 1.72 0 01-1.222-.505 1.772 1.772 0 01-.516-1.233.94.94 0 00-.008-.117l-1.636-12.377c.006-2.6 1.751-4.2 3.508-4.317.052.01.104.014.156.015h.007l49.912-.374.023.001h.033a3.49 3.49 0 011.467.332c.46.216.868.53 1.198.92a4.738 4.738 0 011.119 2.991l-.275 2.239a20.473 20.473 0 00-12.54-5.137 20.42 20.42 0 00-12.98 3.845 20.856 20.856 0 00-4.288 4.15l-.017-2.356a.94.94 0 00-.271-.655.913.913 0 00-.649-.271h-.006a.91.91 0 00-.649.278.934.934 0 00-.264.662l.018 2.564a.94.94 0 00.272.656c.172.173.405.27.648.27h.007c.03 0 .06-.002.088-.005a20.994 20.994 0 00-3.278 8.276zm39.133 3.494c0 10.513-8.429 19.066-18.79 19.066-10.361 0-18.79-8.553-18.79-19.066a19.21 19.21 0 015.503-13.483A18.653 18.653 0 0153.62 30c4.983 0 9.763 2.009 13.287 5.584a19.21 19.21 0 015.503 13.483z"/><path d="M31.745 33h-.004a.33.33 0 00-.189.066.585.585 0 00-.16.185 1.025 1.025 0 00-.106.275 1.378 1.378 0 00-.036.323l.01 2.315c.001.222.054.435.146.591.093.157.218.245.349.245h.004a.33.33 0 00.189-.066.588.588 0 00.16-.185c.045-.08.081-.172.106-.275.024-.102.037-.212.036-.323l-.01-2.314a1.196 1.196 0 00-.147-.592c-.092-.157-.217-.245-.348-.245zm-4.505 0h-.007c-.13 0-.259.023-.379.066-.12.044-.228.106-.32.185a.844.844 0 00-.211.275.735.735 0 00-.073.323l.02 2.315a.786.786 0 00.293.591c.185.157.436.245.697.245h.007c.13 0 .259-.023.379-.066a1.01 1.01 0 00.32-.185.842.842 0 00.211-.275.734.734 0 00.073-.323l-.02-2.315a.786.786 0 00-.293-.591A1.085 1.085 0 0027.24 33zm40.495 12.724a1.334 1.334 0 00.342-1.709l-2.996-5.114c-.315-.532-.972-.865-1.627-.488L60.38 39.85a12.638 12.638 0 00-2.12-1.246l-.308-3.44a1.302 1.302 0 00-.454-.862 1.268 1.268 0 00-.79-.3H50.86a1.218 1.218 0 00-.839.32c-.23.21-.373.5-.403.813l-.309 3.469a11.34 11.34 0 00-2.13 1.24l-3.09-1.441a.912.912 0 00-.041-.018c-.577-.235-1.28.003-1.562.519l-2.921 5.106a1.327 1.327 0 00.347 1.721l.019.014 2.775 2.003a8.386 8.386 0 00-.002 2.5l-2.907 2.009a1.318 1.318 0 00-.52.812 1.33 1.33 0 00.145.913l2.925 5.11.007.01c.153.272.395.479.684.586a1.11 1.11 0 00.94-.1l3.076-1.436c.665.484 1.375.9 2.12 1.245l.308 3.441a1.301 1.301 0 00.454.862c.222.188.5.294.789.3h5.849c.31.005.609-.11.839-.32.23-.21.374-.5.403-.812l.31-3.47a11.29 11.29 0 002.13-1.241l3.088 1.442.046.02c.574.23 1.276-.008 1.557-.52l2.927-5.112a1.325 1.325 0 00-.346-1.711l-2.597-2.008a8.437 8.437 0 00.002-2.521l2.782-2.008.02-.014zm-4.303.847a.918.918 0 00-.372.88l.03.21a7.33 7.33 0 010 2.678l-.029.203a.934.934 0 00.348.863l2.665 2.06-2.432 4.25-3.137-1.466a.895.895 0 00-.953.124l-.166.138a9.49 9.49 0 01-2.285 1.335l-.188.081a.928.928 0 00-.546.762l-.31 3.472H51.24l-.31-3.472a.928.928 0 00-.546-.762l-.189-.081a10.99 10.99 0 01-2.327-1.367l-.163-.125a.899.899 0 00-.923-.1l-3.128 1.46-2.42-4.227 2.778-1.92.022-.015.176-.13a.918.918 0 00.365-.874l-.03-.216a7.293 7.293 0 01.001-2.671l.03-.21a.933.933 0 00-.372-.88l-2.839-2.049 2.424-4.235 3.138 1.465a.895.895 0 00.952-.124l.166-.138c.697-.55 1.466-1 2.285-1.334l.189-.082a.927.927 0 00.546-.763l.31-3.471h4.817l.31 3.471a.93.93 0 00.17.458c.097.134.227.24.377.305l.188.081c.828.358 1.609.816 2.327 1.367l.163.125a.9.9 0 00.923.1l3.132-1.463 2.484 4.24-2.834 2.047z"/><path d="M53.75 41c-4.767 0-8.5 3.514-8.5 8 0 4.486 3.733 8 8.5 8 4.766 0 8.5-3.514 8.5-8 0-4.486-3.734-8-8.5-8zm0 14.203a6.889 6.889 0 01-3.662-1.045 6.3 6.3 0 01-2.427-2.784 5.865 5.865 0 01-.376-3.584 6.1 6.1 0 011.804-3.176 6.729 6.729 0 013.375-1.698 6.975 6.975 0 013.808.353 6.521 6.521 0 012.958 2.285A5.947 5.947 0 0160.34 49a5.82 5.82 0 01-.482 2.384 6.122 6.122 0 01-1.427 2.022 6.566 6.566 0 01-2.148 1.343 6.88 6.88 0 01-2.533.454z"/><path d="M53.75 45c-.89 0-1.76.235-2.5.674a4.142 4.142 0 00-1.657 1.795 3.594 3.594 0 00-.257 2.312 3.884 3.884 0 001.232 2.047c.63.56 1.431.94 2.304 1.095a5.025 5.025 0 002.6-.227 4.429 4.429 0 002.02-1.474A3.691 3.691 0 0058.25 49a3.575 3.575 0 00-.33-1.537 3.958 3.958 0 00-.974-1.304 4.529 4.529 0 00-1.467-.866A4.946 4.946 0 0053.75 45zm0 6.246c-.5 0-.988-.132-1.404-.379a2.326 2.326 0 01-.93-1.008 2.015 2.015 0 01-.144-1.297 2.18 2.18 0 01.692-1.15 2.637 2.637 0 011.293-.614 2.82 2.82 0 011.46.127c.461.17.856.458 1.133.828a2.072 2.072 0 01.241 2.11 2.222 2.222 0 01-.547.732 2.54 2.54 0 01-.823.486 2.776 2.776 0 01-.971.165z"/></symbol><symbol viewBox="0 0 25 26" id="comfortable" xmlns="http://www.w3.org/2000/svg"><g clip-path="url(#afa)"><path fill-rule="evenodd" clip-rule="evenodd" d="M.5 7.926A3.575 3.575 0 014.075 4.35h16.683a3.575 3.575 0 013.575 3.575v9.533a3.575 3.575 0 01-3.575 3.575H4.075A3.575 3.575 0 01.5 17.459V7.926zm3.575-1.192h16.683a1.192 1.192 0 011.192 1.192V11.5H2.883V7.926a1.192 1.192 0 011.192-1.192zm-1.192 7.15v3.575a1.192 1.192 0 001.192 1.192H7.65v-4.767H2.883zm7.15 4.767h10.725a1.192 1.192 0 001.192-1.192v-3.575H10.033v4.767z"/></g><defs><clipPath id="afa"><path d="M.5.351h23.833v24.683H.5z"/></clipPath></defs></symbol><symbol viewBox="0 0 25 24" id="facebook" xmlns="http://www.w3.org/2000/svg"><g clip-path="url(#aga)"><path d="M12.487 0C6.124 0 .967 5.158.967 11.52c0 6.362 5.157 11.52 11.52 11.52 6.362 0 11.52-5.158 11.52-11.52C24.007 5.158 18.849 0 12.487 0zm2.729 7.96h-1.732c-.205 0-.433.27-.433.63v1.25h2.166l-.328 1.783h-1.838v5.353h-2.044v-5.353H9.153V9.84h1.854V8.791c0-1.505 1.044-2.727 2.477-2.727h1.732V7.96z"/></g><defs><clipPath id="aga"><path transform="translate(.967)" d="M0 0h23.04v23.04H0z"/></clipPath></defs></symbol><symbol viewBox="0 0 24 24" id="files-pckg" xmlns="http://www.w3.org/2000/svg"><path d="M7 6V3a1 1 0 011-1h12a1 1 0 011 1v14a1 1 0 01-1 1h-3v3c0 .552-.45 1-1.007 1H4.007A1 1 0 013 21l.003-14c0-.552.45-1 1.006-1H7zM5.002 8L5 20h10V8H5.002zM9 6h8v10h2V4H9v2zm-2 5h6v2H7v-2zm0 4h6v2H7v-2z"/></symbol><symbol viewBox="0 0 174 56" id="footer-logo" xmlns="http://www.w3.org/2000/svg"><g clip-path="url(#aia)"><path d="M102.342 38.073c3.812 0 6.07-1.21 8.103-3.429l-2.767-3.025c-1.553 1.44-2.936 2.362-5.194 2.362-3.388 0-5.731-2.881-5.731-6.339 0-3.515 2.4-6.34 5.731-6.34 2.258 0 3.557.836 5.081 2.248l2.598-3.054c-1.835-1.844-3.925-3.285-7.651-3.285-6.07 0-10.305 4.697-10.305 10.431 0 5.85 4.32 10.431 10.135 10.431zm11.019-.346h4.347v-6.166l2.287-2.42 6.126 8.586h5.223l-8.413-11.612 8.046-8.558h-5.251l-8.018 8.817v-8.817h-4.347v20.17zm29.656.346c6.098 0 10.531-4.697 10.531-10.431 0-5.792-4.376-10.431-10.474-10.431s-10.531 4.697-10.531 10.431c0 5.792 4.376 10.431 10.474 10.431zm.057-4.092c-3.501 0-5.985-2.881-5.985-6.339 0-3.515 2.428-6.34 5.928-6.34 3.501 0 5.985 2.882 5.985 6.34 0 3.515-2.427 6.34-5.928 6.34zm13.766 3.746h4.348V21.562h7.792v16.165h4.347v-20.17H156.84v20.17zM.5 38.177h4.432l1.807-4.524h8.357l1.807 4.524h4.545l-8.47-20.315H8.97L.5 38.177zm7.792-8.443l2.626-6.541 2.625 6.54H8.292zm15.641 8.443h9.402c4.46 0 7.396-1.844 7.396-5.533 0-2.766-1.411-4.12-3.698-5.014 1.412-.806 2.597-2.074 2.597-4.35 0-1.442-.451-2.565-1.355-3.488-1.129-1.152-2.908-1.786-5.166-1.786h-9.176v20.17zm4.235-12.016v-4.265h4.291c1.836 0 2.852.75 2.852 2.075 0 1.556-1.214 2.19-3.134 2.19h-4.009zm0 8.126v-4.438h5.026c2.23 0 3.218.836 3.218 2.19 0 1.556-1.157 2.248-3.077 2.248h-5.167zm20.177 3.89h4.348v-16.08h6.013v-4.091H42.332v4.092h6.013v16.079z"/><path d="M.5 37.958h4.432l1.807-4.524h8.357l1.807 4.524h4.545l-8.47-20.314H8.97L.5 37.958zm7.792-8.442l2.626-6.542 2.625 6.541H8.292zm15.641 8.442h9.402c4.46 0 7.396-1.844 7.396-5.532 0-2.766-1.411-4.12-3.698-5.014 1.412-.807 2.597-2.075 2.597-4.351 0-1.44-.451-2.565-1.355-3.487-1.129-1.152-2.908-1.786-5.166-1.786h-9.176v20.17zm4.235-12.016v-4.264h4.291c1.836 0 2.852.749 2.852 2.074 0 1.556-1.214 2.19-3.134 2.19h-4.009zm0 8.126v-4.437h5.026c2.23 0 3.218.835 3.218 2.19 0 1.556-1.157 2.247-3.077 2.247h-5.167zm20.177 3.89h4.348V21.88h6.013v-4.091H42.332v4.091h6.013v16.08z"/><path fill-rule="evenodd" clip-rule="evenodd" d="M86.17 39.753a.29.29 0 00.203-.087 12.974 12.974 0 002.578-4.06c.63-1.594.951-3.286.951-5.076v-.077c0-1.8-.32-3.481-.951-5.075a12.97 12.97 0 00-2.642-4.17c-1.123-1.19-2.48-2.128-4.063-2.826a12.243 12.243 0 00-3.893-.972c-.225-.022-.385.197-.31.415l1.219 3.831a.323.323 0 00.203.207 8.249 8.249 0 013.508 2.281 8.876 8.876 0 011.721 2.871 9.876 9.876 0 01.62 3.515v.076c0 1.234-.203 2.402-.62 3.493a9.387 9.387 0 01-1.133 2.161c-.16.23-.01.535.267.535h1.294c.503 0 .91.415.91.928V39.6c-.012.088.053.153.138.153z"/><path d="M79.25 28.589l-4.684-13.371-.588-1.746-6.31 2.226.043.131 1.102 3.078a12.604 12.604 0 00-2.834 2.205 12.65 12.65 0 00-2.706 4.191c-.674 1.67-.962 3.351-.962 5.152 0 1.801.32 3.493.962 5.076a13.039 13.039 0 002.674 4.18.149.149 0 00.256-.11l-.032-1.942a.902.902 0 01.898-.928h1.294c.257 0 .407-.295.268-.513-.46-.698-.888-1.593-1.166-2.336-.438-1.167-.62-2.346-.62-3.59 0-1.234.31-2.413.727-3.493a8.985 8.985 0 011.711-2.86c.278-.306.567-.579.888-.84l2.737 7.683 1.936-.665.331 1.037 2.588-.863-.331-1.037 1.818-.665z"/><path d="M85.41 37.61c-.043-.114-.203-.21-.343-.21h-1.732a.473.473 0 00-.246.086.366.366 0 00-.096.125c-.043.115-.075.22-.096.316l-.171-.431-.984-2.434c-.193-.469-.695-.785-1.251-.785h-8.844c-.556 0-1.07.316-1.251.785l-.695 1.715-.46 1.15a2.44 2.44 0 00-.097-.316c-.042-.115-.203-.211-.342-.211H67.07a.418.418 0 00-.342.21c-.171.46-.171.72 0 1.179.042.115.203.21.342.21h1.732l-.021.068c-.353.105-.61.402-.61.756v5.25c0 .21.193.383.428.383h2.15c.235 0 .427-.172.427-.383v-1.312h9.796v1.312c0 .21.192.383.428.383h2.149c.235 0 .428-.172.428-.383v-5.259c0-.355-.257-.651-.61-.757l-.021-.067h1.732a.418.418 0 00.342-.21c.16-.45.16-.71-.01-1.17zm-14.33-.114l.727-1.81h8.513l.727 1.81.62 1.532H70.46l.62-1.532zm.962 3.88h-1.796c-.385 0-.695-.279-.695-.623 0-.345.31-.623.695-.623h1.796c.385 0 .695.278.695.623.011.344-.31.622-.695.622zm9.839 0h-1.797c-.385 0-.695-.279-.695-.623 0-.345.31-.623.695-.623h1.797c.385 0 .695.278.695.623 0 .344-.31.622-.695.622zM67.697 11.915l3.895-1.369.893 2.648-3.895 1.368z"/></g><defs><clipPath id="aia"><path transform="translate(.5)" d="M0 0h172.828v56H0z"/></clipPath></defs></symbol><symbol viewBox="0 0 43 40" id="hammer" xmlns="http://www.w3.org/2000/svg"><path d="M5.556 32.101c.305-.733.931-1.19 1.478-1.713 4.596-4.387 9.196-8.77 13.796-13.154.076-.073.157-.138.246-.217-.871-.706-1.77-1.324-2.648-1.972-.11-.08-.166-.056-.26.025-.783.683-1.5.655-2.238-.08-.409-.408-.82-.813-1.224-1.226-.634-.645-.64-1.49-.004-2.127 2.263-2.268 4.527-4.534 6.796-6.796.622-.62 1.47-.613 2.103.007.45.44.895.887 1.336 1.337.613.624.627 1.436.037 2.08-.094.103-.19.17-.07.335 1.169 1.603 2.296 3.239 3.754 4.606 1.214 1.137 2.577 2.083 3.917 3.061.12.088.184.062.287-.031.716-.654 1.488-.635 2.17.042.432.43.865.857 1.292 1.293.606.62.627 1.469.018 2.081a1690.36 1690.36 0 01-6.84 6.84c-.615.612-1.459.594-2.081-.014-.45-.44-.894-.887-1.337-1.336-.625-.634-.64-1.456-.026-2.1.127-.134.137-.211.026-.357a131.43 131.43 0 01-1.755-2.382c-.141-.197-.213-.163-.361-.008-4.64 4.878-9.287 9.748-13.93 14.625-.48.505-1.02.793-1.735.653a1.462 1.462 0 01-.76-.418c-.513-.511-1.02-1.03-1.54-1.535-.206-.202-.29-.473-.447-.702v-.817zm26.544-15.1c-.448-.325-.879-.64-1.312-.951-1.702-1.226-3.288-2.574-4.584-4.24a51.988 51.988 0 01-1.834-2.48c-.176-.257-.273-.223-.44-.02-.134.161-.295.3-.443.448-1.44 1.44-2.875 2.887-4.327 4.316-.225.221-.192.32.048.466.215.128.411.29.615.438 1.681 1.21 3.308 2.482 4.632 4.099.785.958 1.513 1.959 2.236 2.964.073.102.12.25.294.075C28.68 20.412 30.383 18.715 32.1 17zM6.436 32.543c-.018.188.074.349.212.488.497.498.99 1 1.493 1.492.284.277.648.298.974.061.126-.092.236-.208.344-.322 2.247-2.355 4.491-4.714 6.738-7.07 2.405-2.524 4.81-5.049 7.22-7.567.141-.148.173-.233.02-.4a28.583 28.583 0 00-1.422-1.428c-.194-.184-.31-.2-.52 0-3.094 2.963-6.197 5.917-9.298 8.874-1.794 1.71-3.587 3.42-5.383 5.13-.21.199-.39.41-.378.742zm18.09-25.299c.004-.194-.097-.338-.226-.466-.416-.417-.83-.833-1.248-1.247-.375-.37-.642-.366-1.02.01-.648.644-1.293 1.291-1.94 1.937-1.573 1.574-3.148 3.148-4.72 4.723-.33.33-.355.634-.067.931.447.46.9.912 1.359 1.359.275.267.589.265.863-.01 2.267-2.262 4.53-4.528 6.795-6.793.123-.122.207-.263.203-.444zm3.933 18.81c.182.01.323-.072.447-.195 2.265-2.265 4.53-4.528 6.793-6.795.286-.286.282-.595-.001-.886-.44-.45-.886-.897-1.338-1.336-.29-.281-.594-.277-.885.013-2.26 2.255-4.517 4.513-6.772 6.771-.305.305-.301.597.002.906.434.442.875.877 1.313 1.316.122.122.26.213.441.207zm1.701 9.566h-6.959c-.62 0-.769-.201-.594-.795.222-.753.44-1.507.662-2.26.227-.776.734-1.159 1.545-1.159h10.739c.777 0 1.292.382 1.51 1.12.238.803.472 1.606.704 2.412.133.462-.045.682-.553.682h-7.053zm-6.616-.906c.06.017.08.027.1.027 4.316.001 8.631 0 12.948.006.201 0 .194-.081.152-.222l-.475-1.595c-.172-.581-.262-.65-.859-.65H24.92c-.095 0-.19 0-.284.007-.206.014-.38.111-.442.303-.228.703-.435 1.414-.65 2.124z"/></symbol><symbol viewBox="0 0 25 25" id="home" xmlns="http://www.w3.org/2000/svg"><path d="M5.5 22.596h14a2 2 0 002-2v-9a1 1 0 00-.29-.71l-8-8a1 1 0 00-1.41 0l-8 8a1 1 0 00-.3.71v9a2 2 0 002 2zm5-2v-5h4v5h-4zm-5-8.59l7-7 7 7v8.59h-3v-5a2 2 0 00-2-2h-4a2 2 0 00-2 2v5h-3v-8.59z"/></symbol><symbol viewBox="0 0 25 24" id="laptop" xmlns="http://www.w3.org/2000/svg"><path d="M19.988 18.004h-15a1.502 1.502 0 01-1.5-1.5v-10.5a1.502 1.502 0 011.5-1.5h15a1.501 1.501 0 011.5 1.5v10.5a1.502 1.502 0 01-1.5 1.5zm-15-12v10.5h15v-10.5h-15zm-3 13.5h21v1.5h-21v-1.5z"/></symbol><symbol viewBox="0 0 41 40" id="magnifier" xmlns="http://www.w3.org/2000/svg"><g clip-path="url(#ama)"><path d="M39.758 39.257A2.423 2.423 0 0137.98 40c-.69 0-1.282-.248-1.777-.743l-7.734-7.742c-3.125 2.32-6.615 3.48-10.469 3.48-2.37 0-4.635-.463-6.797-1.388-2.161-.925-4.023-2.17-5.586-3.734-1.562-1.564-2.806-3.421-3.73-5.572A17.046 17.046 0 01.5 17.498c0-2.386.462-4.66 1.387-6.824.924-2.163 2.168-4.02 3.73-5.571 1.563-1.551 3.425-2.79 5.586-3.715A17.093 17.093 0 0118 0c2.37 0 4.635.463 6.797 1.388 2.161.925 4.023 2.164 5.586 3.715 1.562 1.55 2.806 3.408 3.73 5.572a17.138 17.138 0 011.387 6.803c0 3.884-1.159 7.377-3.477 10.479l7.735 7.742c.495.495.742 1.088.742 1.779 0 .69-.247 1.284-.742 1.78zM18 5.005c-2.266 0-4.355.554-6.27 1.662a12.313 12.313 0 00-4.55 4.555 12.285 12.285 0 00-1.68 6.276c0 2.254.56 4.346 1.68 6.275a12.312 12.312 0 004.55 4.555c1.915 1.108 4.004 1.662 6.27 1.662s4.355-.554 6.27-1.662a12.312 12.312 0 004.55-4.555 12.284 12.284 0 001.68-6.275c0-2.255-.56-4.347-1.68-6.276a12.313 12.313 0 00-4.55-4.555C22.355 5.559 20.266 5.005 18 5.005z"/></g><defs><clipPath id="ama"><path transform="translate(.5)" d="M0 0h40.039v40H0z"/></clipPath></defs></symbol><symbol viewBox="0 0 16 16" id="mail" xmlns="http://www.w3.org/2000/svg"><path d="M13.333 14.333H2.667A1.333 1.333 0 011.333 13V4.942a1.333 1.333 0 011.334-1.275h10.666A1.333 1.333 0 0114.667 5v8a1.333 1.333 0 01-1.334 1.333zM2.667 6.245V13h10.666V6.245L8 9.8 2.667 6.245zM3.2 5L8 8.2 12.8 5H3.2z"/></symbol><symbol viewBox="0 0 81 80" id="mainten" xmlns="http://www.w3.org/2000/svg"><path d="M24.354 46.37h.025a3.131 3.131 0 00-.024-6.264h-.026a3.131 3.131 0 00.025 6.263zm-.672-3.794a.937.937 0 01.666-.282h.007a.944.944 0 01.008 1.889h-.008a.945.945 0 01-.673-1.607zm32.585 3.539h.025a3.132 3.132 0 00-.024-6.264h-.025a3.132 3.132 0 00.024 6.263zm-.672-3.794a.937.937 0 01.665-.282h.008a.944.944 0 01.007 1.889h-.008a.945.945 0 01-.672-1.607zm-21.02 6.412h.009l11.543-.092a1.094 1.094 0 10-.009-2.188h-.009l-11.543.092a1.093 1.093 0 10.009 2.188zm25.079 16.851c-5.641 4.842-12.728 7.622-19.444 7.626h-.015c-4.375 0-8.95-1.178-13.231-3.406a32.92 32.92 0 01-11.29-9.672 1.092 1.092 0 00-1.818.079 1.095 1.095 0 00.053 1.215 35.123 35.123 0 0012.044 10.319c4.592 2.39 9.516 3.654 14.242 3.654h.015c7.23-.005 14.836-2.977 20.867-8.154a34.299 34.299 0 0011.778-22.24 1.094 1.094 0 10-2.174-.245 32.118 32.118 0 01-11.027 20.824zM8.608 36.206a1.094 1.094 0 001.21-.964 32.118 32.118 0 0111.028-20.826C26.487 9.574 33.574 6.794 40.29 6.79h.015c4.375 0 8.95 1.178 13.231 3.407a32.92 32.92 0 0111.29 9.672 1.093 1.093 0 101.765-1.294 35.125 35.125 0 00-12.045-10.32c-4.597-2.393-9.522-3.66-14.257-3.653-7.231.005-14.837 2.978-20.867 8.155A34.299 34.299 0 007.644 34.996a1.094 1.094 0 00.964 1.21zm43.695-.713a1.094 1.094 0 001.094 1.085h.008a1.096 1.096 0 001.085-1.102 5.17 5.17 0 00-10.34.082 1.093 1.093 0 001.094 1.085h.01a1.094 1.094 0 001.084-1.102 2.982 2.982 0 015.965-.047zm-17.198 8.9h.01a1.094 1.094 0 001.084-1.103l-.015-1.878a1.094 1.094 0 00-1.094-1.085h-.01a1.094 1.094 0 00-1.084 1.103l.016 1.878a1.093 1.093 0 001.093 1.085zm-3.478.027h.009a1.093 1.093 0 001.085-1.102l-.015-1.878a1.094 1.094 0 00-1.094-1.085h-.009a1.096 1.096 0 00-1.085 1.103l.015 1.878a1.094 1.094 0 001.094 1.085zm17.377-4.201h-.01a1.094 1.094 0 00-1.084 1.102l.015 1.878a1.094 1.094 0 001.094 1.085h.009a1.094 1.094 0 001.085-1.102l-.016-1.878a1.093 1.093 0 00-1.093-1.085zm-10.42 4.147h.008a1.093 1.093 0 001.085-1.102l-.015-1.878a1.094 1.094 0 00-1.094-1.085h-.009a1.093 1.093 0 00-1.085 1.102l.016 1.878a1.094 1.094 0 001.093 1.085zm3.477-.027h.01a1.096 1.096 0 001.084-1.103l-.015-1.877a1.094 1.094 0 00-1.094-1.086h-.009a1.094 1.094 0 00-1.084 1.103l.016 1.878a1.094 1.094 0 001.092 1.085zm3.455-4.093a1.096 1.096 0 00-1.085 1.103l.015 1.878a1.094 1.094 0 001.093 1.085h.009a1.093 1.093 0 001.085-1.103l-.015-1.878a1.092 1.092 0 00-1.102-1.085z"/><path d="M16.81 36.377h.01l1.52-.014a5.219 5.219 0 00-1.173 3.403c0 .046.004.091.01.137l1.218 9.048a3.064 3.064 0 002.25 2.848l.021 2.606a2.08 2.08 0 002.077 2.06h.017l2.984-.024a2.078 2.078 0 002.06-2.094l-.02-2.487 25.19-.201.02 2.487a2.077 2.077 0 002.076 2.06h.017l2.985-.023a2.078 2.078 0 002.06-2.094l-.02-2.617a3.072 3.072 0 002.153-2.867l1.125-9.065c.006-.047.009-.095.009-.143a5.175 5.175 0 00-1.266-3.38l1.561-.014a1.093 1.093 0 001.083-1.155 7.56 7.56 0 00-.384-1.863c-.481-1.406-1.946-2.3-3.73-2.291-.895.007-2.443.014-3.315.018l-1.51-2.726c-1.176-2.07-2.894-4.443-5.772-4.443h-.041l-19.574.156c-2.355.019-4.418 1.634-5.812 4.548l-1.524 2.751-3.351.022c-1.785.015-3.235.938-3.694 2.35a7.564 7.564 0 00-.354 1.87 1.094 1.094 0 001.093 1.138v-.001zm6.042 17.9l-.019-2.378 2.765-.022.018 2.377-2.764.023zm32.328-.258l-.019-2.377 2.764-.022.02 2.377-2.765.022zm5.5-21.139c.8-.01 1.477.327 1.643.813l.044.133-3.282.027-.53-.96c.746-.004 1.564-.008 2.125-.013zm-34.11-3.604c.012-.02.022-.04.032-.06.588-1.238 1.872-3.315 3.868-3.331l19.574-.156h.023c1.385 0 2.544 1 3.866 3.324l3.01 5.445-33.413.266 3.04-5.488zm32.196 7.395h.043a2.202 2.202 0 011.672.777c.455.53.712 1.2.729 1.898l-1.123 9.051a1.092 1.092 0 00-.008.144.878.878 0 01-.866.88l-37.751.3h-.007a.878.878 0 01-.873-.865.915.915 0 00-.01-.138l-1.217-9.036c.016-1.632 1.099-2.637 2.197-2.724.038.005.076.007.114.008h.009l37.091-.295zm-40.613-2.627c.158-.487.828-.831 1.63-.838l2.118-.014-.529.954-3.26.03.04-.132zM72.908 35.1a1.094 1.094 0 00-1.834 0l-5.75 8.865a1.094 1.094 0 00.918 1.689l11.512-.007a1.094 1.094 0 00.916-1.69l-5.762-8.858zm-4.653 8.365l3.738-5.762 3.744 5.757-7.482.005zM8.508 45.4a1.094 1.094 0 00.918-.5l5.75-8.863a1.094 1.094 0 00-.918-1.69l-11.512.008a1.094 1.094 0 00-.916 1.69l5.761 8.857a1.094 1.094 0 00.917.497zm3.737-8.864l-3.738 5.762-3.744-5.757 7.482-.005z"/></symbol><symbol viewBox="0 0 25 24" id="ok" xmlns="http://www.w3.org/2000/svg"><g clip-path="url(#apa)"><path fill-rule="evenodd" clip-rule="evenodd" d="M12.487 24c6.627 0 12-5.373 12-12s-5.373-12-12-12c-6.628 0-12 5.373-12 12s5.372 12 12 12zM8.952 8.742c0 1.892 1.6 3.49 3.525 3.49l.012.001a3.503 3.503 0 003.514-3.49c0-1.958-1.534-3.557-3.525-3.557-1.926 0-3.526 1.6-3.526 3.556zm2.09.001c0-.816.62-1.501 1.435-1.501.85 0 1.437.684 1.437 1.501 0 .815-.588 1.435-1.436 1.435-.816 0-1.436-.62-1.436-1.435zm4.83 8.318l-1.99-1.924c.75-.228 1.469-.522 2.088-.914.457-.261.589-.913.294-1.403-.293-.489-.913-.619-1.435-.293a4.51 4.51 0 01-4.7 0c-.523-.326-1.11-.196-1.436.293-.261.49-.164 1.142.326 1.403a9.19 9.19 0 002.087.913L9.082 17.06c-.391.423-.391 1.044 0 1.435.23.195.49.293.719.293.294 0 .556-.097.751-.293l1.926-1.957 1.99 1.957c.327.423.98.423 1.404 0 .392-.391.392-1.012 0-1.435z"/></g><defs><clipPath id="apa"><path transform="translate(.487)" d="M0 0h24v24H0z"/></clipPath></defs></symbol><symbol viewBox="0 0 25 25" id="price" xmlns="http://www.w3.org/2000/svg"><g clip-path="url(#aqa)"><path d="M5.5 9.35a1 1 0 011 1 6.97 6.97 0 014.33 1.5H13c1.333 0 2.53.58 3.354 1.5H19.5a5 5 0 014.516 2.852c-2.365 3.12-6.194 5.149-10.516 5.149-2.79 0-5.15-.603-7.06-1.658a.998.998 0 01-.94.658h-3a1 1 0 01-1-1v-9a1 1 0 011-1h3zm1.001 3L6.5 17.374l.045.032c1.795 1.26 4.133 1.946 6.955 1.946 3.004 0 5.799-1.156 7.835-3.13l.133-.133-.12-.1a2.994 2.994 0 00-1.643-.63l-.205-.007h-2.111c.072.322.111.656.111 1v1h-9v-2l6.79-.001-.034-.078a2.5 2.5 0 00-2.092-1.416L13 13.85h-2.93a4.986 4.986 0 00-3.568-1.5h-.001zm-2.001-1h-1v7h1v-7zm14-6a3 3 0 110 6 3 3 0 010-6zm0 2a1 1 0 100 2 1 1 0 000-2zm-7-5a3 3 0 110 6 3 3 0 010-6zm0 2a1 1 0 100 2 1 1 0 000-2z"/></g><defs><clipPath id="aqa"><path transform="translate(.5 .35)" d="M0 0h24v24H0z"/></clipPath></defs></symbol><symbol viewBox="0 0 16 16" id="quetion" xmlns="http://www.w3.org/2000/svg"><path d="M8 4a2.626 2.626 0 00-2.623 2.623h1.334a1.29 1.29 0 012.579 0c0 .398-.321.688-.811 1.084-.16.125-.314.258-.461.399-.665.665-.685 1.37-.685 1.45V10h1.334l-.001-.422c0-.01.022-.257.294-.529.1-.1.226-.2.357-.305.519-.42 1.305-1.056 1.305-2.121A2.624 2.624 0 008 4zm-.667 6.667h1.334V12H7.333v-1.333z"/><path d="M8 1.332a6.674 6.674 0 00-6.667 6.667A6.674 6.674 0 008 14.665 6.674 6.674 0 0014.667 8 6.674 6.674 0 008 1.332zm0 12a5.34 5.34 0 01-5.333-5.333A5.34 5.34 0 018 2.665 5.34 5.34 0 0113.334 8 5.34 5.34 0 018 13.332z"/></symbol><symbol viewBox="0 0 25 25" id="receipt" xmlns="http://www.w3.org/2000/svg"><path d="M21.25 11.5h-3v-7a1 1 0 00-1-1h-14a1 1 0 00-1 1v14c0 1.654 1.346 3 3 3h14c1.654 0 3-1.346 3-3v-6a1 1 0 00-1-1zm-16 8a1 1 0 01-1-1v-13h12v13c0 .351.061.688.171 1H5.25zm15-1a1 1 0 01-2 0v-5h2v5z"/><path d="M6.25 7.5h8v2h-8v-2zm0 4h8v2h-8v-2zm5 4h3v2h-3v-2z"/></symbol><symbol viewBox="0 0 81 80" id="report-doc" xmlns="http://www.w3.org/2000/svg"><path d="M9.564 43.122a3.923 3.923 0 011.088-2.72L26.097 28.08l-1.364-1.71-15.5 12.365a1.055 1.055 0 00-.099.089 6.098 6.098 0 00-1.758 4.298V67.4h2.188V43.122zm19.659 21.617a6.144 6.144 0 005.04-6.036v-6.227h-2.187v6.227a3.951 3.951 0 01-3.947 3.947 1.094 1.094 0 00-1.094 1.093V67.4h2.188v-2.661z"/><path d="M32.499 76.295V68.96a2.659 2.659 0 00-2.657-2.656H5.875a2.66 2.66 0 00-2.656 2.656v7.334a2.659 2.659 0 002.656 2.656h23.967a2.659 2.659 0 002.657-2.656zm-27.093 0V68.96a.469.469 0 01.469-.469h23.967a.469.469 0 01.47.469v7.334a.469.469 0 01-.47.469H5.875a.469.469 0 01-.469-.47z"/><path d="M9.794 69.708a3.047 3.047 0 102.985 3.047 3.02 3.02 0 00-2.985-3.047zm0 3.906a.863.863 0 11.797-.86.83.83 0 01-.797.86zm55.336-37.18c-.6 0-1.199.045-1.792.133V15.603a1.093 1.093 0 00-.32-.774L49.556 1.367a1.093 1.093 0 00-.774-.32h-20a4.464 4.464 0 00-4.46 4.46v33.509h2.188V5.506a2.274 2.274 0 012.271-2.272h18.907v9.003a4.465 4.465 0 004.46 4.46h9.002v20.406a12.14 12.14 0 00-7.855 14.236H28.78a2.275 2.275 0 01-2.271-2.272v-2.906h-2.188v2.906a4.464 4.464 0 004.46 4.46h25.25A12.15 12.15 0 1065.13 36.433zM52.147 14.509a2.274 2.274 0 01-2.272-2.272V4.781l9.728 9.728h-7.456zm12.981 44.042a9.965 9.965 0 119.965-9.965 9.976 9.976 0 01-9.965 9.965z"/><path d="M46.04 29.438h-7.593a1.094 1.094 0 000 2.187h7.593a1.094 1.094 0 100-2.187zm7.442 11.136a1.094 1.094 0 00-1.094-1.093H35.094a1.094 1.094 0 100 2.187h17.294a1.094 1.094 0 001.094-1.094zm-7.458 5.551a1.094 1.094 0 00-1.093-1.094h-9.837a1.094 1.094 0 000 2.188h9.837a1.094 1.094 0 001.093-1.094zm-1.245-20.562a1.093 1.093 0 001.094-1.094 1.527 1.527 0 013.054 0 1.094 1.094 0 102.188 0 3.714 3.714 0 10-7.43 0 1.094 1.094 0 001.094 1.093zM30.445 29.85a2.75 2.75 0 105.501 0 2.75 2.75 0 00-5.501 0zm3.316 0a.564.564 0 11-1.128 0 .564.564 0 011.128 0zm17.529 2.751a2.752 2.752 0 100-5.504 2.752 2.752 0 000 5.504zm0-3.316a.564.564 0 110 1.129.564.564 0 010-1.129zm13.84 14.94a1.605 1.605 0 011.603 1.603 1.094 1.094 0 102.187 0 3.797 3.797 0 00-2.697-3.63v-.55a1.093 1.093 0 10-2.187 0v.55a3.79 3.79 0 001.093 7.42 1.603 1.603 0 01.019 3.207h-.037a1.605 1.605 0 01-1.585-1.603 1.094 1.094 0 00-2.188 0 3.797 3.797 0 002.698 3.63v.672a1.093 1.093 0 102.187 0v-.672a3.791 3.791 0 00-1.094-7.42 1.604 1.604 0 110-3.208zm-50.483 3.172a1.093 1.093 0 001.537.178l11.341-8.98.203.202a2.69 2.69 0 010 3.8l-5.346 5.345c-.19.19-.303.443-.319.71l-.067 1.166a6.108 6.108 0 00.6 2.673 5.751 5.751 0 01-.419 5.605c-.12.18-.183.39-.183.606v2.52a1.093 1.093 0 102.187 0V59.02a7.954 7.954 0 00.395-7.459 3.947 3.947 0 01-.395-1.65l.042-.716 5.052-5.051a4.88 4.88 0 000-6.893l-.891-.891a1.094 1.094 0 00-1.453-.084L14.826 45.86a1.094 1.094 0 00-.179 1.538z"/><path d="M51.002 38.193h1.92a1.727 1.727 0 001.725-1.726V35.05a2.36 2.36 0 001.399-2.069l.767-5.803a1.09 1.09 0 00.01-.143c0-1.714-1.135-3.149-2.642-3.493l-2.21-4.075c-.8-1.437-1.987-3.086-4.056-3.086H36.677c-1.669 0-3.126 1.102-4.106 3.103l-2.28 4.04c-1.519.333-2.629 1.756-2.629 3.51 0 .046.003.092.009.138l.734 5.805a2.361 2.361 0 001.431 2.088v1.4a1.727 1.727 0 001.726 1.726h1.92a1.728 1.728 0 001.726-1.726v-1.209h14.068v1.21a1.728 1.728 0 001.726 1.726zm1.459-2.188h-.997v-.748h.997v.748zM34.49 20.532a.884.884 0 00.032-.06c.344-.71 1.082-1.902 2.153-1.902h11.238c.736 0 1.378.587 2.14 1.953l1.595 2.94h-18.81l1.654-2.931zm-1.47 15.473h-.997v-.748h.997v.748zm-2.259-2.935a.175.175 0 01-.17-.17c0-.047-.003-.093-.009-.138l-.732-5.786c.023-.625.414-1.276 1.038-1.33.025.001.05.004.076.004h22.518c.69 0 1.125.675 1.15 1.323l-.764 5.782a1.09 1.09 0 00-.01.144.174.174 0 01-.17.17H30.762z"/></symbol><symbol viewBox="0 0 43 40" id="satchel" xmlns="http://www.w3.org/2000/svg"><g clip-path="url(#aua)"><path d="M38 24.45c-.239.472-.489.93-1.025 1.138-.149.058-.078.21-.08.318-.003 2.435 0 4.87-.003 7.305-.002.878-.46 1.505-1.244 1.725-.201.056-.407.056-.611.056-9.114 0-18.228.002-27.341 0-1.18 0-1.847-.674-1.848-1.853-.001-2.414-.003-4.828.004-7.241.001-.198-.052-.297-.234-.394-.607-.327-.876-.865-.876-1.548V11.91c.002-1.174.675-1.855 1.85-1.857 2.23-.004 4.46-.006 6.69.005.27.002.344-.067.337-.338-.017-.659-.003-1.32.008-1.98.023-1.407 1.21-2.672 2.825-2.67 3.28.007 6.559-.01 9.838.008 1.408.008 2.422.821 2.761 2.15.111.434.077.882.079 1.324.001.4.015.802-.006 1.2-.013.245.06.307.304.306 1.797-.011 3.594-.008 5.39-.005.552 0 1.106-.015 1.655.028.75.059 1.254.501 1.461 1.219.013.042.013.084.065.095v13.054zM21.39 11.163H6.618c-.58.002-.768.185-.77.749v11.98c0 .482.161.671.632.737.985.137 1.971.268 2.956.403l6.36.876c1.04.143 2.079.28 3.116.431.21.031.265-.022.248-.225a4.908 4.908 0 01.002-.616 1.63 1.63 0 011.555-1.572c.432-.02.866-.02 1.298 0 .622.028 1.073.34 1.378.883.212.38.206.79.185 1.2-.014.266.023.373.34.326 1.796-.264 3.595-.507 5.394-.755 2.27-.313 4.54-.629 6.81-.935.625-.084.769-.225.769-.844V12.05c0-.748-.139-.886-.891-.886H21.39zm-.022 22.719h13.669c.52 0 .744-.18.745-.635.006-2.413.002-4.826.006-7.24 0-.158-.034-.204-.198-.177-.491.079-.984.144-1.477.212l-6.81.94c-1.157.158-2.313.319-3.47.47-.202.027-.263.108-.254.308.016.4.014.801-.001 1.201a1.638 1.638 0 01-1.573 1.59 16.45 16.45 0 01-1.266 0 1.639 1.639 0 01-1.576-1.586c-.015-.4-.023-.801 0-1.2.014-.232-.08-.29-.283-.317-1.285-.17-2.57-.35-3.855-.527-2.592-.355-5.184-.706-7.774-1.073-.25-.036-.303 0-.302.253.01 2.316.007 4.632.007 6.948 0 .68.153.834.84.834l13.572-.001zm.01-27.7c-1.623 0-3.246-.006-4.87 0-1.105.005-1.77.671-1.785 1.777-.005.421-.008.844.002 1.265.006.267-.12.615.052.779.17.162.516.021.781.052.246.028.28-.087.277-.298a54.25 54.25 0 01-.002-1.818c.005-.454.2-.648.659-.648a5723.3 5723.3 0 019.77 0c.44 0 .635.195.643.63.009.434.003.866.003 1.299 0 .842 0 .832.838.838.244 0 .28-.086.274-.298-.014-.573-.003-1.146-.005-1.72-.003-1.205-.658-1.858-1.866-1.859h-4.77zm-.007 3.869c1.375 0 2.749-.009 4.123.007.267.002.324-.082.31-.325a10.608 10.608 0 010-1.07c.01-.208-.047-.272-.264-.27-.963.013-1.926.006-2.89.006-1.795 0-3.591.007-5.387-.008-.28-.002-.346.077-.328.34.025.344.02.693.001 1.038-.012.223.047.29.28.288 1.386-.012 2.77-.006 4.155-.006zM20.265 27.24c0 .519-.004 1.039.002 1.558.004.448.207.646.66.652.315.004.629.007.943-.001.39-.01.602-.217.605-.609.006-1.071.006-2.142 0-3.214-.003-.389-.216-.59-.612-.598a24.848 24.848 0 00-.941-.001c-.453.006-.651.203-.655.655-.005.518-.002 1.038-.002 1.558z"/></g><defs><clipPath id="aua"><path transform="translate(4.673 3.333)" d="M0 0h33.333v33.333H0z"/></clipPath></defs></symbol><symbol viewBox="0 0 25 25" id="speed-test" xmlns="http://www.w3.org/2000/svg"><g clip-path="url(#ava)"><path d="M12.128 16.77l-2.047-2.14 6.791-5.953 1.21 1.302-5.954 6.79zm8.837 6.047c2.14-2.14 3.535-5.117 3.535-8.466 0-6.604-5.395-12-12-12s-12 5.396-12 12c0 3.35 1.302 6.326 3.535 8.466l1.674-1.675c-1.767-1.767-2.79-4.093-2.79-6.79A9.568 9.568 0 0112.5 4.769a9.568 9.568 0 019.581 9.58c0 2.606-1.116 5.025-2.79 6.792l1.674 1.676z"/></g><defs><clipPath id="ava"><path transform="translate(.5 .35)" d="M0 0h24v24.466H0z"/></clipPath></defs></symbol><symbol viewBox="0 0 25 25" id="telegram" xmlns="http://www.w3.org/2000/svg"><g clip-path="url(#awa)"><path fill-rule="evenodd" clip-rule="evenodd" d="M24.25 12.5c0 6.627-5.373 12-12 12s-12-5.373-12-12 5.373-12 12-12 12 5.373 12 12zM12.68 9.359c-1.167.485-3.5 1.49-6.998 3.014-.568.226-.866.447-.893.663-.046.366.412.51 1.034.705.085.027.173.054.263.084.613.199 1.437.432 1.865.441.389.008.823-.152 1.302-.48 3.268-2.207 4.955-3.322 5.061-3.346.075-.017.179-.039.249.024.07.062.063.18.056.212-.046.193-1.84 1.862-2.77 2.726-.29.269-.495.46-.537.504-.094.097-.19.19-.282.279-.57.548-.996.96.024 1.632.49.323.882.59 1.273.856.427.291.853.581 1.405.943.14.092.274.187.405.28.497.355.944.673 1.496.623.32-.03.652-.331.82-1.23.397-2.126 1.179-6.73 1.36-8.628a2.112 2.112 0 00-.02-.472.506.506 0 00-.172-.325c-.143-.117-.365-.142-.465-.14-.451.008-1.143.249-4.476 1.635z"/></g><defs><clipPath id="awa"><path transform="translate(.25 .5)" d="M0 0h24v24H0z"/></clipPath></defs></symbol><symbol viewBox="0 0 25 24" id="telegram-fill" xmlns="http://www.w3.org/2000/svg"><g clip-path="url(#axa)"><path fill-rule="evenodd" clip-rule="evenodd" d="M24.5 12c0 6.627-5.373 12-12 12S.5 18.627.5 12s5.373-12 12-12 12 5.373 12 12zM12.93 8.859c-1.167.485-3.5 1.49-6.998 3.014-.568.226-.866.447-.893.663-.046.366.412.51 1.034.705.085.027.173.054.263.084.613.199 1.437.432 1.865.441.389.008.823-.152 1.302-.48 3.268-2.207 4.955-3.322 5.061-3.346.075-.017.179-.039.249.024.07.062.063.18.056.212-.046.193-1.84 1.862-2.77 2.726-.29.269-.495.46-.537.504-.094.097-.19.19-.282.279-.57.548-.996.96.024 1.632.49.323.882.59 1.273.856.427.291.853.581 1.405.943.14.092.274.187.405.28.497.355.944.673 1.496.623.32-.03.652-.331.82-1.23.397-2.126 1.179-6.73 1.36-8.628a2.112 2.112 0 00-.02-.472.506.506 0 00-.172-.325c-.143-.117-.365-.142-.465-.14-.451.008-1.143.249-4.476 1.635z"/></g><defs><clipPath id="axa"><path transform="translate(.5)" d="M0 0h24v24H0z"/></clipPath></defs></symbol><symbol viewBox="0 0 25 24" id="telegram-white" xmlns="http://www.w3.org/2000/svg"><g clip-path="url(#aya)"><path fill-rule="evenodd" clip-rule="evenodd" d="M24.25 12c0 6.627-5.373 12-12 12s-12-5.373-12-12 5.373-12 12-12 12 5.373 12 12zM12.68 8.859c-1.167.485-3.5 1.49-6.998 3.014-.568.226-.866.447-.893.663-.046.366.412.51 1.034.705.085.027.173.054.263.084.613.199 1.437.432 1.865.441.389.008.823-.152 1.302-.48 3.268-2.207 4.955-3.322 5.061-3.346.075-.017.179-.039.249.024.07.062.063.18.056.212-.046.193-1.84 1.862-2.77 2.726-.29.269-.495.46-.537.504-.094.097-.19.19-.282.279-.57.548-.996.96.024 1.632.49.323.882.59 1.273.856.427.291.853.581 1.405.943.14.092.274.187.405.28.497.355.944.673 1.496.623.32-.03.652-.331.82-1.23.397-2.126 1.179-6.73 1.36-8.628a2.112 2.112 0 00-.02-.472.506.506 0 00-.172-.325c-.143-.117-.365-.142-.465-.14-.451.008-1.143.249-4.476 1.635z"/></g><defs><clipPath id="aya"><path transform="translate(.25)" d="M0 0h24v24H0z"/></clipPath></defs></symbol><symbol viewBox="0 0 25 24" id="twitter-with" xmlns="http://www.w3.org/2000/svg"><g clip-path="url(#aza)"><path d="M12.98 0c-6.628 0-12 5.372-12 12s5.372 12 12 12 12-5.372 12-12-5.372-12-12-12zm4.881 9.83c.005.102.006.205.006.305 0 3.125-2.376 6.726-6.723 6.726A6.668 6.668 0 017.52 15.8c.184.022.373.031.564.031a4.734 4.734 0 002.935-1.011 2.37 2.37 0 01-2.208-1.64c.354.067.719.053 1.067-.042a2.366 2.366 0 01-1.897-2.317v-.029a2.37 2.37 0 001.072.296 2.363 2.363 0 01-.732-3.157 6.72 6.72 0 004.872 2.471 2.364 2.364 0 014.027-2.156 4.746 4.746 0 001.5-.574 2.375 2.375 0 01-1.038 1.309 4.75 4.75 0 001.357-.374c-.317.475-.716.89-1.179 1.224z"/></g><defs><clipPath id="aza"><path transform="translate(.98)" d="M0 0h24v24H0z"/></clipPath></defs></symbol><symbol viewBox="0 0 24 24" id="umlim" xmlns="http://www.w3.org/2000/svg"><path d="M19.374 15.104A8.001 8.001 0 008.03 5.054l-.992-1.737A9.996 9.996 0 0117 3.341c4.49 2.592 6.21 8.142 4.117 12.77l1.342.774-4.165 2.214-.165-4.713 1.246.719zM4.624 8.898a8.001 8.001 0 0011.345 10.05l.992 1.738A9.997 9.997 0 017 20.662C2.51 18.07.79 12.52 2.882 7.892L1.54 7.117l4.165-2.214.165 4.714L4.623 8.9h.001zm8.79 5.931l-2.83-2.828-2.829 2.829-1.414-1.415 4.243-4.242 2.83 2.829 2.828-2.829 1.414 1.415-4.243 4.242h.001z"/></symbol><symbol viewBox="0 0 25 23" id="user-check" xmlns="http://www.w3.org/2000/svg"><g clip-path="url(#bba)"><path d="M22.746 7.57l-5.218 5.218-1.581-1.57-1.715 1.728 3.284 3.284 6.957-6.933-1.727-1.727zM2.933 7.217a4.756 4.756 0 004.865 4.865 4.759 4.759 0 004.525-2.985c.24-.597.355-1.237.34-1.88a4.755 4.755 0 00-4.865-4.865 4.756 4.756 0 00-4.865 4.865zm7.297 0A2.324 2.324 0 017.798 9.65a2.323 2.323 0 01-2.433-2.433 2.323 2.323 0 012.433-2.432 2.323 2.323 0 012.432 2.432zM2.933 19.38a3.649 3.649 0 013.647-3.65h2.433a3.649 3.649 0 013.649 3.649v1.216h2.432V19.38a6.081 6.081 0 00-6.081-6.081H6.58a6.081 6.081 0 00-6.08 6.08v1.217h2.433V19.38z"/></g><defs><clipPath id="bba"><path transform="translate(.5 .35)" d="M0 0h23.973v22.245H0z"/></clipPath></defs></symbol><symbol viewBox="0 0 25 25" id="vk" xmlns="http://www.w3.org/2000/svg"><g clip-path="url(#bca)"><path d="M15.934.5H8.566C1.842.5.25 2.092.25 8.816v7.368c0 6.724 1.592 8.316 8.316 8.316h7.368c6.724 0 8.316-1.592 8.316-8.316V8.816C24.25 2.092 22.641.5 15.934.5zm3.692 17.123h-1.744c-.66 0-.864-.525-2.05-1.727-1.033-1-1.49-1.135-1.744-1.135-.356 0-.458.102-.458.593v1.575c0 .424-.135.678-1.253.678-1.846 0-3.896-1.118-5.335-3.202C4.874 11.357 4.28 9.07 4.28 8.596c0-.254.102-.491.593-.491h1.744c.44 0 .61.203.78.677.863 2.49 2.303 4.675 2.896 4.675.22 0 .322-.102.322-.66v-2.576c-.068-1.186-.695-1.287-.695-1.71 0-.204.17-.407.44-.407h2.744c.373 0 .508.203.508.643v3.473c0 .372.17.508.271.508.22 0 .407-.136.813-.542 1.254-1.406 2.151-3.574 2.151-3.574.119-.254.322-.491.763-.491h1.744c.525 0 .644.27.525.643-.22 1.017-2.354 4.031-2.354 4.031-.186.305-.254.44 0 .78.186.254.796.779 1.203 1.253.745.847 1.32 1.558 1.473 2.05.17.49-.085.744-.576.744l.001.001z"/></g><defs><clipPath id="bca"><path transform="translate(.25 .5)" d="M0 0h24v24H0z"/></clipPath></defs></symbol><symbol viewBox="0 0 25 24" id="vk-footer" xmlns="http://www.w3.org/2000/svg"><g clip-path="url(#bda)"><path d="M12.993 0c-6.627 0-12 5.372-12 12s5.373 12 12 12c6.628 0 12-5.372 12-12s-5.372-12-12-12zm4.615 13.539s1.061 1.047 1.323 1.534c.007.01.011.02.014.024.106.18.13.318.078.422-.087.172-.387.257-.49.265h-1.875c-.13 0-.402-.034-.732-.261-.254-.178-.504-.47-.748-.753-.364-.422-.679-.787-.996-.787a.38.38 0 00-.119.018c-.24.078-.547.42-.547 1.333 0 .285-.225.449-.384.449h-.859c-.292 0-1.816-.103-3.166-1.527-1.652-1.744-3.14-5.241-3.152-5.274-.094-.226.1-.347.31-.347H8.16c.252 0 .335.154.392.29.068.159.315.79.721 1.5.659 1.157 1.063 1.627 1.386 1.627.061 0 .12-.016.174-.044.423-.235.344-1.742.325-2.054 0-.059-.001-.674-.217-.969-.155-.214-.419-.295-.579-.325a.688.688 0 01.249-.211c.29-.145.812-.167 1.331-.167h.289c.562.008.707.044.911.095.413.1.421.365.385 1.277-.011.258-.022.551-.022.896 0 .075-.004.155-.004.24-.013.464-.028.99.3 1.206a.27.27 0 00.142.041c.114 0 .457 0 1.384-1.59.286-.513.535-1.045.744-1.593a.492.492 0 01.138-.172.333.333 0 01.155-.036h2.227c.242 0 .409.036.44.13.055.149-.01.603-1.026 1.979l-.454.599c-.921 1.207-.921 1.269.057 2.185z"/></g><defs><clipPath id="bda"><path transform="translate(.993)" d="M0 0h24v24H0z"/></clipPath></defs></symbol><symbol viewBox="0 0 25 24" id="vk-white" xmlns="http://www.w3.org/2000/svg"><g clip-path="url(#bea)"><path d="M15.934 0H8.566C1.842 0 .25 1.592.25 8.316v7.368C.25 22.408 1.842 24 8.566 24h7.368c6.724 0 8.316-1.592 8.316-8.316V8.316C24.25 1.592 22.641 0 15.934 0zm3.692 17.123h-1.744c-.66 0-.864-.525-2.05-1.727-1.033-1-1.49-1.135-1.744-1.135-.356 0-.458.102-.458.593v1.575c0 .424-.135.678-1.253.678-1.846 0-3.896-1.118-5.335-3.202C4.874 10.857 4.28 8.57 4.28 8.096c0-.254.102-.491.593-.491h1.744c.44 0 .61.203.78.677.863 2.49 2.303 4.675 2.896 4.675.22 0 .322-.102.322-.66V9.721c-.068-1.186-.695-1.287-.695-1.71 0-.204.17-.407.44-.407h2.744c.373 0 .508.203.508.643v3.473c0 .372.17.508.271.508.22 0 .407-.136.813-.542 1.254-1.406 2.151-3.574 2.151-3.574.119-.254.322-.491.763-.491h1.744c.525 0 .644.27.525.643-.22 1.017-2.354 4.031-2.354 4.031-.186.305-.254.44 0 .78.186.254.796.779 1.203 1.253.745.847 1.32 1.558 1.473 2.05.17.49-.085.744-.576.744l.001.001z"/></g><defs><clipPath id="bea"><path transform="translate(.25)" d="M0 0h24v24H0z"/></clipPath></defs></symbol><symbol viewBox="0 0 25 24" id="yandex-zen" xmlns="http://www.w3.org/2000/svg"><g clip-path="url(#bfa)"><path d="M14.814 14.314C12.93 16.26 12.791 18.686 12.63 24c4.954 0 8.374-.017 10.14-1.731 1.714-1.766 1.731-5.349 1.731-10.14-5.314.171-7.74.3-9.686 2.185zM.5 12.13c0 4.791.017 8.374 1.731 10.14C3.997 23.983 7.417 24 12.371 24c-.171-5.314-.3-7.74-2.185-9.686C8.24 12.43 5.814 12.291.5 12.13zM12.371 0C7.426 0 3.997.017 2.231 1.731.517 3.497.5 7.08.5 11.871c5.314-.171 7.74-.3 9.686-2.185C12.07 7.74 12.209 5.314 12.37 0zm2.443 9.686C12.93 7.74 12.791 5.314 12.63 0c4.954 0 8.374.017 10.14 1.731 1.713 1.766 1.73 5.349 1.73 10.14-5.314-.171-7.74-.3-9.686-2.185z"/></g><defs><clipPath id="bfa"><rect x=".5" width="24" height="24" rx="12"/></clipPath></defs></symbol><symbol viewBox="0 0 25 24" id="youtube" xmlns="http://www.w3.org/2000/svg"><g clip-path="url(#bga)"><path d="M14.397 11.8l-2.695-1.258c-.235-.11-.429.013-.429.274v2.368c0 .26.194.383.429.274l2.694-1.258c.236-.11.236-.29.001-.4zM12.473.48C6.111.48.953 5.638.953 12c0 6.362 5.158 11.52 11.52 11.52 6.363 0 11.52-5.158 11.52-11.52 0-6.362-5.157-11.52-11.52-11.52zm0 16.2c-5.896 0-6-.532-6-4.68s.104-4.68 6-4.68c5.897 0 6 .532 6 4.68s-.103 4.68-6 4.68z"/></g><defs><clipPath id="bga"><path transform="translate(.473)" d="M0 0h24v24H0z"/></clipPath></defs></symbol></svg>